<?xml version="1.0" standalone="no"?>
<!DOCTYPE svg PUBLIC "-//W3C//DTD SVG 1.1//EN" "http://www.w3.org/Graphics/SVG/1.1/DTD/svg11.dtd" >
<!--
2013-9-30: Created.
-->
<svg>
<metadata>
Created by iconfont
</metadata>
<defs>

<font id="cdfg-iconfont" horiz-adv-x="1024" >
  <font-face
    font-family="cdfg-iconfont"
    font-weight="500"
    font-stretch="normal"
    units-per-em="1024"
    ascent="896"
    descent="-128"
  />
    <missing-glyph />
    
    <glyph glyph-name="x" unicode="x" horiz-adv-x="1001"
d="M281 543q-27 -1 -53 -1h-83q-18 0 -36.5 -6t-32.5 -18.5t-23 -32t-9 -45.5v-76h912v41q0 16 -0.5 30t-0.5 18q0 13 -5 29t-17 29.5t-31.5 22.5t-49.5 9h-133v-97h-438v97zM955 310v-52q0 -23 0.5 -52t0.5 -58t-10.5 -47.5t-26 -30t-33 -16t-31.5 -4.5q-14 -1 -29.5 -0.5
t-29.5 0.5h-32l-45 128h-439l-44 -128h-29h-34q-20 0 -45 1q-25 0 -41 9.5t-25.5 23t-13.5 29.5t-4 30v167h911zM163 247q-12 0 -21 -8.5t-9 -21.5t9 -21.5t21 -8.5q13 0 22 8.5t9 21.5t-9 21.5t-22 8.5zM316 123q-8 -26 -14 -48q-5 -19 -10.5 -37t-7.5 -25t-3 -15t1 -14.5
t9.5 -10.5t21.5 -4h37h67h81h80h64h36q23 0 34 12t2 38q-5 13 -9.5 30.5t-9.5 34.5q-5 19 -11 39h-368zM336 498v228q0 11 2.5 23t10 21.5t20.5 15.5t34 6h188q31 0 51.5 -14.5t20.5 -52.5v-227h-327z" />
    

    
    <glyph glyph-name="close-circled" unicode="&#58926;" d="M512 888.77C234.91200000000003 888.77 10.240000000000009 664.098 10.240000000000009 387.01c0-277.08799999999997 224.672-501.76 501.76-501.76 277.08799999999997 0 501.76 224.672 501.76 501.76C1013.76 664.098 789.088 888.77 512 888.77zM754.5919999999999 217.89c3.3600000000000003-3.3600000000000003 5.151999999999998-7.84 5.151999999999998-12.543999999999997 0-4.704000000000001-1.7919999999999998-9.408000000000001-5.151999999999998-12.543999999999997l-48.38400000000001-48.60799999999998c-3.5839999999999996-3.5839999999999996-8.064-5.151999999999998-12.543999999999997-5.151999999999998-4.48 0-9.184 1.7919999999999998-12.543999999999997 5.151999999999998L512 313.538l-168.89600000000002-169.56799999999996c-3.3600000000000003-3.5839999999999996-8.064-5.151999999999998-12.543999999999997-5.151999999999998-4.48 0-9.184 1.7919999999999998-12.543999999999997 5.151999999999998l-48.38400000000001 48.60799999999998c-3.3600000000000003 3.3600000000000003-5.151999999999998 7.84-5.151999999999998 12.543999999999997 0 4.704000000000001 1.7919999999999998 9.408000000000001 5.151999999999998 12.543999999999997l169.56799999999996 170.23999999999998-170.01600000000002 168c-6.944 6.944-6.944 18.368 0 25.312l48.38400000000001 48.60799999999998c3.3600000000000003 3.3600000000000003 7.84 5.151999999999998 12.543999999999997 5.151999999999998 4.704000000000001 0 9.184-1.7919999999999998 12.543999999999997-5.151999999999998l169.56799999999996-167.32799999999997 169.56799999999996 167.32799999999997c3.3600000000000003 3.3600000000000003 7.84 5.151999999999998 12.543999999999997 5.151999999999998 4.704000000000001 0 9.184-1.7919999999999998 12.543999999999997-5.151999999999998l48.38400000000001-48.60799999999998c6.944-6.944 6.944-18.368 0-25.312l-170.01600000000002-168L754.5919999999999 217.89z"  horiz-adv-x="1024" />

    
    <glyph glyph-name="brand-outline" unicode="&#58880;" d="M1023.997 358.595v-0.448c0-7.040-3.648-13.12-8.768-17.152l-418.494-418.558c-8.512-8.448-22.144-8.448-30.528 0-8.512 8.384-8.512 22.080 0 30.656l413.502 413.438 0 146.303c0 12.224 9.856 22.144 22.208 22.144 12.16 0 22.080-9.856 22.080-22.144v-154.047c0-0.064 0-0.128 0-0.192zM423.104-118.65c-0.768-1.024-1.28-2.176-2.048-3.136-4.416-4.352-10.176-6.336-15.808-6.208-5.76-0.128-11.52 1.856-15.808 6.208-0.96 0.96-1.408 2.112-2.048 3.136l-370.366 370.558c-1.28 0.64-2.368 1.216-3.392 2.048-4.288 4.288-6.272 10.112-6.144 15.808-0.128 5.696 1.856 11.392 6.144 15.744 1.024 0.96 2.112 1.408 3.392 2.112l503.613 503.741c4.096 5.248 10.112 8.768 17.152 8.768h0.576c0.064 0 0.064 0 0.064 0h89.151c2.816 33.28 16.448 62.4 36.864 81.344l0.32-0.384c4.288 4.544 10.176 7.36 16.832 7.36 12.992 0 23.616-11.328 23.616-25.28 0-8.32-3.904-15.232-9.728-19.904-10.624-9.664-18.112-25.216-20.608-43.264h105.599c0 0 0.064 0 0.128 0h0.384c7.104 0 13.12-3.52 17.152-8.768l128.895-128.767c5.12-4.032 8.768-10.048 8.768-17.216v-0.512c0 0 0-0.064 0-0.128v-241.855c0 0 0-0.064 0-0.192v-0.384c0-7.104-3.648-13.12-8.768-17.216l-503.933-503.613zM891.39 636.993l-118.911 118.975h-93.119c3.904-9.792 9.344-18.176 16-24.32v0c0.96-0.768 1.984-1.152 2.88-2.048l0.32 0.384c22.976-21.568 38.208-55.424 38.208-94.079 0-0.96-0.32-1.664-0.384-2.624 26.496-15.232 44.48-43.584 44.48-76.288 0-48.768-39.616-88.384-88.384-88.384-48.832 0-88.384 39.616-88.384 88.384 0 47.488 37.504 85.888 84.352 88-1.984 19.712-9.728 36.416-20.928 46.848-0.96 0.704-2.048 1.152-2.88 1.984l-0.32-0.384c-16.512 15.296-28.608 37.248-34.368 62.464h-83.712l-486.205-486.141 345.278-345.214 486.141 486.269 0 226.175zM667.583 580.098c5.44 5.056 9.92 11.776 13.696 19.52-18.88-5.056-32.896-22.144-32.896-42.624 0-24.384 19.84-44.16 44.096-44.16 24.512 0 44.224 19.84 44.224 44.16 0 10.432-3.776 19.968-9.856 27.584-13.568-34.176-28.608-42.176-28.608-42.176-4.224-4.608-10.176-7.424-16.768-7.424-13.12 0-23.744 11.264-23.744 25.216 0 8.256 4.032 15.232 9.856 19.904zM256.769 307.651c8.576 8.448 22.144 8.448 30.656 0l155.775-155.775c8.384-8.512 8.384-22.080 0-30.592-8.512-8.384-22.080-8.384-30.592 0l-155.839 155.839c-8.32 8.384-8.32 22.080 0 30.528zM345.217 396.035c8.512 8.384 22.080 8.384 30.592 0l155.775-155.839c8.384-8.512 8.384-22.080 0-30.592-8.512-8.32-22.080-8.32-30.528 0l-155.839 155.903c-8.384 8.448-8.384 22.144 0 30.528z"  horiz-adv-x="1024" />

    
    <glyph glyph-name="user-outline" unicode="&#58881;" d="M512-128c-265.92 0-512 17.408-512 143.936 0 100.48 162.304 213.76 361.728 252.288 16.448 3.84 30.4 17.344 35.584 35.072 5.888 19.52 0 40.064-15.68 56.512-0.768 0.704-1.408 1.408-1.856 2.176-64 63.68-103.744 165.696-103.744 267.392-0 156.992 97.024 266.624 235.968 266.624s236.032-109.632 236.032-266.624c0-101.952-42.048-208.256-107.136-270.72-14.784-15.68-20.48-36.032-14.72-55.296 5.12-17.536 19.008-31.040 36.096-35.136 199.040-38.208 361.728-151.424 361.728-252.288 0-126.528-246.080-143.936-512-143.936zM414.912 386.368c24.256-26.944 33.024-62.272 23.232-95.168-9.536-32.384-35.456-57.152-67.584-64.512-193.6-37.504-328-141.056-328-210.752 0-101.376 353.344-101.376 469.44-101.376s469.44 0 469.44 101.376c0 69.76-140.352 174.656-328.128 210.752-32.896 7.744-58.496 32.512-68.032 64.64-9.984 33.728-0.384 70.144 25.408 97.344 57.856 55.552 94.72 149.76 94.72 240.704 0 131.968-79.552 224.064-193.408 224.064s-193.408-92.096-193.408-224.064c0-90.624 36.672-184.576 93.44-239.488 1.152-1.024 2.112-2.24 2.88-3.52z"  horiz-adv-x="1024" />

    
    <glyph glyph-name="home-outline" unicode="&#58882;" d="M534.268 851.4l-534.172-489.7 44.472-51.062 89.071 95.534v-489.7c0-44.472 42.616-44.472 42.616-44.472h224.534v267.086h222.486v44.472l-267.15 0v-267.086h-178.015v534.3l356.093 311.558 445.101-445.165 44.6 44.536-489.636 489.7zM845.825 228.093v-311.622h-222.614l1.024-44.472c0 0 177.119 0 221.59 0 44.536 0 44.536 47.287 44.536 47.287l-0 353.406h-44.536l0-44.6z"  horiz-adv-x="1024" />

    
    <glyph glyph-name="categories-outline" unicode="&#58883;" d="M390.336 494.144l38.144-7.36c22.656 117.76 136.896 195.2 254.656 172.544l7.296 38.080c-138.752 26.688-273.408-64.512-300.096-203.264zM1020.672-97.728l-165.76 244.608c74.24 52.864 129.344 132.992 147.84 229.312 38.272 198.976-92.544 391.936-291.456 430.208-198.784 38.208-391.744-92.544-430.080-291.52-38.208-198.784 92.544-391.68 291.264-429.888 88.96-17.152 176.512-0.384 249.728 41.024l166.4-245.376c3.008-4.48 7.552-7.232 12.352-8.256 4.864-0.896 10.048 0 14.592 3.008 8.832 5.952 11.136 18.112 5.12 26.88zM579.904 123.136c-177.792 34.112-294.656 206.656-260.544 384.448 34.24 177.92 206.784 294.912 384.64 260.672s294.72-206.784 260.672-384.768c-34.24-177.856-206.848-294.592-384.768-260.352zM0 811.904h413.952v-38.464h-413.952v38.464zM0 383.36h256v-38.4h-256v38.4zM0-89.472h933.504v-38.528h-933.504v38.528z"  horiz-adv-x="1025" />

    
    <glyph glyph-name="user" unicode="&#58884;" d="M512-128c-265.92 0-512 17.408-512 143.936 0 100.48 162.304 213.76 361.728 252.288 16.448 3.84 30.4 17.344 35.584 35.072 5.888 19.52 0 40.064-15.68 56.576-0.768 0.64-1.344 1.344-1.856 2.112-64 63.616-103.744 165.632-103.744 267.392-0 156.992 97.024 266.624 235.968 266.624s236.032-109.632 236.032-266.624c0-102.016-42.048-208.256-107.136-270.72-14.784-15.616-20.48-36.032-14.72-55.232 5.12-17.536 19.008-31.040 36.096-35.136 199.040-38.272 361.728-151.488 361.728-252.352 0-126.528-246.080-143.936-512-143.936z"  horiz-adv-x="1024" />

    
    <glyph glyph-name="brand" unicode="&#58885;" d="M1023.833 358.768v-0.448c0-6.974-3.647-13.18-8.765-17.21l-418.359-418.359c-8.509-8.509-22.137-8.509-30.518 0-8.509 8.381-8.509 22.009 0 30.646l413.369 413.305v146.256c0 12.22 9.853 22.137 22.201 22.137 12.156 0 22.073-9.853 22.073-22.137v-153.998c0-0.064 0-0.128 0-0.192zM926.712 662.732l-128.854 128.726c-4.031 5.246-9.981 8.765-17.146 8.765h-0.384c-0.064 0-0.128 0-0.128 0h-105.565c2.495 18.042 9.981 33.525 20.601 43.25 5.886 4.606 9.725 11.58 9.725 19.897 0 13.947-10.621 25.272-23.608 25.272-6.654 0-12.476-2.815-16.827-7.358l-0.32 0.384c-20.409-19.002-34.037-48.112-36.852-81.317l-88.995-0c0 0 0 0-0.064 0h-0.576c-6.974 0-12.988-3.519-17.146-8.765l-503.387-503.835c-1.28-0.64-2.367-1.152-3.391-2.111-4.287-4.351-6.27-9.981-6.142-15.739-0.128-5.63 1.855-11.516 6.142-15.739 1.024-0.896 2.111-1.472 3.391-2.111l370.247-370.375c0.64-1.024 1.152-2.239 2.047-3.135 4.287-4.351 10.045-6.398 15.803-6.27 5.63-0.128 11.388 1.855 15.803 6.27 0.832 0.832 1.344 2.111 2.047 3.135l503.579 503.707c5.118 4.031 8.765 10.045 8.765 17.21l0 0.32c0 0.128 0 0.192 0 0.192v241.777c0 0.064 0 0.128 0 0.128v0.512c0 7.102-3.583 13.116-8.765 17.21zM443.159 121.597c-8.509-8.381-22.073-8.381-30.582 0l-155.725 155.661c-8.317 8.381-8.317 22.137 0 30.518 8.573 8.509 22.137 8.509 30.646 0l155.725-155.725c8.317-8.509 8.317-22.009-0.064-30.454zM531.514 209.888c-8.509-8.381-22.073-8.381-30.518 0l-155.725 155.789c-8.381 8.445-8.381 22.137 0 30.582 8.509 8.381 22.073 8.381 30.582 0l155.725-155.853c8.317-8.509 8.317-22.009-0.064-30.518zM692.421 468.748c-48.816 0-88.355 39.603-88.355 88.355 0 47.472 37.492 85.86 84.324 87.971-1.983 19.706-9.725 36.404-20.921 46.833-0.96 0.704-2.047 1.152-2.879 1.983l-0.32-0.384c-16.507 15.291-28.599 37.236-34.357 62.444h49.328c3.903-9.789 9.341-18.17 15.995-24.312 1.024-0.704 2.047-1.088 2.943-1.983l0.32 0.384c22.968-21.561 38.196-55.406 38.196-94.049 0-0.96-0.32-1.663-0.384-2.623 26.487-15.227 44.465-43.57 44.465-76.263 0-48.752-39.603-88.355-88.355-88.355zM667.533 580.199c5.438 5.054 9.917 11.772 13.692 19.514-18.874-5.054-32.885-22.137-32.885-42.61 0-24.376 19.834-44.146 44.082-44.146 24.504 0 44.21 19.834 44.21 44.146 0 10.429-3.775 19.961-9.853 27.575-13.564-34.165-28.599-42.162-28.599-42.162-4.223-4.606-10.173-7.422-16.763-7.422-13.116 0-23.736 11.26-23.736 25.208 0 8.253 4.031 15.227 9.853 19.897zM575.979 575.721v0z"  horiz-adv-x="1024" />

    
    <glyph glyph-name="scan-outline" unicode="&#58886;" d="M22.303 384.032h977.347v-46.589h-977.347v46.589zM68.828-34.886c0 46.589 0 186.164 0 186.164h-46.525v-232.689c0 0 0-46.589 46.589-46.589 46.525 0 186.164 0 186.164 0v46.589h-139.703c0 0.064-46.525 0.064-46.525 46.525zM953.188-34.886c0-46.525-46.589-46.525-46.589-46.525h-139.639l-0-46.525c0 0 139.639 0 186.164 0s46.525 46.589 46.525 46.589v232.689h-46.525c0.064-0.064 0.064-139.639 0.064-186.228zM68.828 802.886c0 46.589 46.525 46.589 46.525 46.589h139.703v46.525c0 0-139.703 0-186.164 0-46.589 0-46.589-46.525-46.589-46.525v-232.753h46.589c-0.064 0-0.064 139.639-0.064 186.164zM953.188 896c-46.589 0-186.164 0-186.164 0v-46.525h139.639c0 0 46.589 0 46.589-46.589 0-46.525 0-186.164 0-186.164h46.525v232.753c-0.128 0-0.128 46.525-46.589 46.525z"  horiz-adv-x="1024" />

    
    <glyph glyph-name="trophy-outline" unicode="&#58887;" d="M574.937 612.465l-60.57 123.123-60.89-122.931-135.787-19.572 98.115-95.876-23.345-135.275 121.524 63.704 121.332-63.96-23.026 135.211 98.371 95.684-135.723 19.892zM612.545 393.146l-98.562 51.936-98.69-51.68 18.996 109.819-79.694 77.839 110.331 15.926 49.377 99.842 49.185-99.97 110.267-16.118-79.95-77.775 18.74-109.819zM954.795 738.147c-25.84 12.216-58.204 12.92-92.486 12.792l5.501 48.674c2.814 25.392-4.669 49.505-21.107 67.862s-39.591 28.526-65.111 28.526h-534.706c-25.52 0-48.61-10.17-65.111-28.526-16.438-18.357-23.857-42.469-21.043-67.862l5.501-48.61c-32.939 0-63.832-1.023-88.713-12.792-33.451-15.862-49.761-47.139-49.761-95.62 0-47.65 15.35-107.837 39.975-157.086 30.637-61.146 70.292-94.789 111.802-94.789 9.018 0 17.909 0.959 26.735 2.814l5.628-50.209c5.053-44.836 39.080-98.434 77.647-121.972l153.312-93.765c12.92-7.931 28.59-13.432 45.54-16.246v-98.498h-99.714c-14.455 0-30.125-9.722-36.457-22.642l-41.19-83.724c-4.029-8.123-3.902-16.566 0.32-23.281 4.157-6.716 11.705-10.553 20.787-10.553h364.252c9.018 0 16.566 3.838 20.723 10.489s4.285 15.159 0.32 23.281l-41.19 83.724c-6.396 12.92-22.066 22.642-36.457 22.642l-99.714 0v98.498c16.949 2.814 32.62 8.379 45.54 16.246l153.312 93.765c38.504 23.537 72.595 77.136 77.647 121.972l5.692 51.040c9.978-2.367 20.083-3.582 30.445-3.582 41.446 0 81.165 33.643 111.802 94.789 24.689 49.313 39.975 109.436 39.975 157.086 0 48.482-16.31 79.758-49.697 95.556zM653.671-20.995l39.975-81.229h-358.816l39.911 81.229c2.111 4.221 9.146 8.635 13.943 8.635h251.107c4.733 0 11.833-4.413 13.879-8.635zM179.536 438.43c-49.249 0-103.999 121.716-103.999 204.16 0 36.841 11.321 47.139 22.386 52.383 16.821 7.931 44.26 8.315 73.618 8.251l29.358-261.852c-7.036-1.983-14.135-2.942-21.363-2.942zM719.998 251.923l-160.732-99.138c-11.193-6.844-27.439-11.001-44.452-11.257l-1.663-0.064c-17.717 0-34.538 4.093-46.179 11.321l-160.732 99.138c-26.096 16.118-52 57.116-55.389 87.817l-53.662 482.45c-1.151 11.001 1.791 21.171 8.443 28.654 6.652 7.483 16.374 11.641 27.311 11.641h560.354c10.937 0 20.659-4.093 27.311-11.641 6.652-7.483 9.658-17.653 8.507-28.654l-53.662-482.45c-3.518-30.701-29.358-71.699-55.453-87.817zM852.715 438.43c-8.571 0-16.885 1.343-25.072 3.966l29.294 260.893c30.765 0.064 59.931 0 77.392-8.251 11.065-5.245 22.386-15.542 22.386-52.383 0-82.508-54.75-204.224-103.999-204.224z"  horiz-adv-x="1024" />

    
    <glyph glyph-name="order-outline" unicode="&#58888;" d="M829.248-128h-724.16c-57.984 0-105.088 47.104-105.088 105.088v774.72c0 57.92 47.104 105.024 105.088 105.024h724.16v-41.984h-724.16c-34.752 0-63.040-28.288-63.040-63.040v-774.72c0-34.752 28.288-63.040 63.040-63.040h724.16l0-42.048zM990.755 755.567l33.549-25.241-509.933-677.79-33.549 25.241 509.933 677.79zM152.704 615.488h434.496v-42.048h-434.496v42.048zM152.704 464.192h345.28v-41.984h-345.28v41.984zM152.704 312.896h257.28v-41.984h-257.28v41.984z"  horiz-adv-x="1025" />

    
    <glyph glyph-name="coupon-outline" unicode="&#58889;" d="M405.504 206.784h55.040v111.872h130.176v56.32h-130.176l129.344 186.24h-67.968l-88.448-128-89.472 128h-67.84l129.344-186.24h-129.792v-56.32h129.792zM1024 528.192v269.376h-1024v-269.376c46.848-29.056 78.72-82.432 78.72-144.192s-31.872-115.136-78.72-144.192v-269.376h1024v269.376c-46.848 29.056-78.72 82.432-78.72 144.192s31.872 115.136 78.72 144.192zM984.64 548.608c-49.664-38.912-78.72-98.944-78.72-164.608s29.056-125.632 78.72-164.608v-209.472l-945.28-0v209.472c49.728 38.976 78.784 98.944 78.784 164.608s-29.056 125.696-78.72 164.608l-0 209.6h945.28v-209.6zM748.288 640h39.36v-39.36h-39.36v39.36zM748.288 718.72h39.36v-39.36h-39.36v39.36zM748.288 561.216h39.36v-39.296h-39.36v39.296zM748.288 482.496h39.36v-39.424h-39.36v39.424zM748.288 403.712h39.36v-39.36h-39.36v39.36zM748.288 324.928h39.36v-39.36h-39.36v39.36zM748.288 246.144h39.36v-39.296h-39.36v39.296zM748.288 167.36h39.36v-39.36h-39.36v39.36zM748.288 88.64h39.36v-39.36h-39.36v39.36z"  horiz-adv-x="1024" />

    
    <glyph glyph-name="cart" unicode="&#58890;" d="M913.984 570.816h-185.6v111.168c0 118.208-95.744 214.016-214.016 214.016s-214.016-95.808-214.016-214.016v-111.168h-189.248l-49.6-698.816h900.992l-48.512 698.816zM344.768 680.832c0.192 93.952 76.48 170.176 170.496 170.176 93.76 0 169.536-75.584 170.368-169.024v-111.168h-340.864v110.016zM300.352 453.184v73.536h44.352l0-72.32c12.8-7.488 21.888-20.8 21.888-36.736 0-23.744-19.392-43.136-43.264-43.136-23.744 0-43.136 19.392-43.136 43.136 0.064 15.168 8.384 27.84 20.16 35.52zM363.776 41.152c-15.36-13.376-34.496-20.032-57.024-20.032-28.096 0-50.88 9.28-68.032 27.712-17.28 18.432-25.728 44.8-25.728 79.36 0 22.208 3.776 41.728 11.008 58.432 7.36 16.704 18.624 29.184 33.728 37.568 15.104 8.32 31.488 12.416 49.28 12.416 22.4 0 40.64-5.632 54.976-16.96 14.144-11.328 23.36-27.392 27.392-48.256l-33.984-5.248c-3.264 13.952-9.024 24.32-17.28 31.232-8.128 6.976-18.112 10.432-29.76 10.432-17.6 0-32-6.208-43.008-18.88-11.008-12.608-16.512-32.576-16.512-59.968 0-27.648 5.376-47.872 16-60.288 10.624-12.608 24.512-18.88 41.472-18.88 13.76 0 25.28 4.16 34.368 12.608 9.28 8.448 14.976 21.376 17.472 38.848l34.368-4.544c-3.648-23.552-13.248-42.112-28.736-55.552zM620.608 25.664h-32.512v26.048c-13.12-20.48-32.256-30.656-57.6-30.656-16.512 0-31.616 4.544-45.376 13.568-13.76 9.152-24.384 21.76-32 38.080-7.616 16.192-11.392 34.88-11.392 55.936 0 20.672 3.392 39.296 10.24 56.064s17.152 29.632 30.848 38.656c13.824 8.832 29.184 13.184 46.080 13.184 12.352 0 23.488-2.56 33.28-7.744 9.728-5.248 17.6-12.096 23.616-20.48l0 102.080h34.88v-284.736zM662.144 417.6c0 16.64 9.728 30.656 23.488 37.824l-0 71.296h42.752v-73.536c11.84-7.68 20.096-20.352 20.096-35.584 0-23.744-19.392-43.136-43.136-43.136-23.872 0.064-43.2 19.392-43.2 43.136zM800.128 281.344c-7.232 1.344-14.016 1.92-20.48 1.92-10.624 0-18.112-2.24-22.528-6.784-4.48-4.544-6.656-13.056-6.656-25.408v-19.008h40.256v-27.264h-40.256v-179.136h-34.752l-0 179.136h-30.848v27.2h30.848v21.952c0 13.824 1.152 24.128 3.648 30.848 3.392 9.024 9.344 16.384 17.728 22.016 8.512 5.696 20.352 8.448 35.648 8.448 9.856 0 20.736-1.216 32.64-3.52l-5.248-30.4zM532.224 207.68c-15.616 0-28.48-6.4-38.976-19.072-10.368-12.672-15.616-32.64-15.616-60.032 0-26.304 5.632-46.144 16.768-59.264 11.136-12.992 24.256-19.584 39.36-19.584 15.232 0 28.224 6.272 38.976 18.752 10.624 12.48 16 31.488 16 57.216 0 28.16-5.504 49.024-16.384 62.144-10.88 13.248-24.256 19.84-40.128 19.84z"  horiz-adv-x="1024" />

    
    <glyph glyph-name="home" unicode="&#58891;" d="M534.269 851.398l-534.205-489.731 44.474-51.066 89.077 95.54v-489.603c0-44.538 42.619-44.538 42.619-44.538h224.484v267.103h222.628v-267.103h0.96c0 0 177.13 0 221.668 0 44.474 0 44.474 47.29 44.474 47.29v486.915l89.013-89.013 44.474 44.474-489.667 489.731z"  horiz-adv-x="1024" />

    
    <glyph glyph-name="categories" unicode="&#58892;" d="M1020.672-97.728l-165.76 244.608c74.24 52.864 129.344 132.992 147.84 229.312 38.272 198.976-92.544 391.936-291.456 430.208-198.784 38.208-391.744-92.544-430.080-291.52-38.208-198.72 92.544-391.616 291.264-429.888 88.96-17.152 176.512-0.384 249.728 41.024l166.4-245.376c3.008-4.48 7.552-7.232 12.352-8.256 4.864-0.896 10.048 0 14.592 3.008 8.832 5.952 11.136 18.112 5.12 26.88zM683.072 659.328c-117.76 22.656-231.936-54.784-254.656-172.544l-38.080 7.36c26.688 138.752 161.344 229.952 300.032 203.264l-7.296-38.080zM0 811.904h413.952v-38.464h-413.952v38.464zM0 383.296h256v-38.4h-256v38.4zM0-89.472h933.504v-38.528h-933.504v38.528z"  horiz-adv-x="1025" />

    
    <glyph glyph-name="best" unicode="&#58893;" d="M278.912-17.92c-6.592 2.112-16.064 3.264-28.416 3.264h-44.928v-66.816h48.384c8.32 0 14.208 0.32 17.472 0.96 5.952 1.088 10.88 2.816 14.848 5.312 3.968 2.432 7.232 6.080 9.792 10.752 2.56 4.736 3.84 10.176 3.84 16.384 0 7.232-1.792 13.568-5.568 18.88-3.648 5.312-8.832 9.088-15.424 11.264zM272.128 10.432c6.592 1.984 11.456 5.184 14.72 9.664s4.992 10.176 4.992 17.024c0 6.464-1.536 12.096-4.608 17.024-3.136 4.928-7.552 8.256-13.248 10.048-5.76 1.792-15.616 2.752-29.568 2.752h-38.848v-58.752h42.048c11.392 0 19.584 0.768 24.512 2.24zM929.6 593.024c-25.024 0-48.512-9.216-66.304-25.856-18.048-16.96-28.032-39.68-28.032-63.936 0-11.136 2.24-22.208 6.528-32.512l-97.664-145.088-135.104 295.296c8.448 13.76 13.056 29.504 13.056 45.696-0.064 49.344-42.368 89.536-94.528 89.536-5.184 0-9.344-0.576-12.288-1.024-46.72-5.824-81.92-44.032-81.92-88.704 0-14.464 3.584-28.352 10.432-41.024l-142.272-291.712-116.352 144.64c2.368 7.936 3.52 16.064 3.52 24.384 0 49.344-42.368 89.536-94.464 89.536-24.96 0-48.448-9.216-66.176-25.792-18.112-16.96-28.032-39.744-28.032-63.808 0.064-36.736 23.488-69.248 58.432-82.88l68.992-341.824v-205.952h754.88v198.784l81.472 348.928c36.032 13.248 60.224 46.080 60.16 83.712 0.064 49.408-42.304 89.6-94.336 89.6zM320.832-73.472c-3.84-7.808-8.576-13.824-14.272-18.048-5.632-4.224-12.736-7.424-21.248-9.6-8.576-2.176-19.008-3.264-31.36-3.264h-74.048v194.304h72.896c14.848 0 26.752-1.984 35.776-5.952 8.96-3.968 16-9.92 21.056-18.112s7.616-16.768 7.616-25.664c0-8.256-2.24-16.128-6.72-23.424s-11.328-13.248-20.416-17.728c11.776-3.456 20.8-9.344 27.136-17.6s9.408-18.112 9.408-29.44c-0.064-9.216-1.984-17.664-5.824-25.472zM507.52-104.448h-144.96v194.304h140.416v-22.912h-114.752v-59.52h107.52v-22.784h-107.52v-66.112h119.296v-22.976zM680.064-78.784c-5.952-9.152-14.464-16.256-25.536-21.312-11.072-5.056-23.552-7.616-37.44-7.616-17.536 0-32.32 2.56-44.16 7.68s-21.184 12.8-27.968 23.104-10.304 21.952-10.688 34.944l24.256 2.112c1.152-9.728 3.84-17.664 8-23.936 4.224-6.272 10.752-11.264 19.584-15.104 8.896-3.84 18.816-5.76 29.824-5.76 9.792 0 18.496 1.408 25.984 4.352s13.056 6.912 16.768 12.032 5.504 10.624 5.504 16.64c0 6.080-1.728 11.456-5.312 15.936-3.52 4.544-9.344 8.384-17.472 11.52-5.184 1.984-16.704 5.184-34.56 9.472-17.856 4.224-30.4 8.32-37.504 12.096-9.344 4.8-16.192 10.88-20.736 18.048s-6.784 15.232-6.784 24.192c0 9.792 2.752 19.008 8.32 27.52s13.76 14.976 24.448 19.456c10.688 4.352 22.592 6.656 35.648 6.656 14.4 0 27.136-2.304 38.144-6.976 11.008-4.608 19.456-11.456 25.344-20.416 5.888-9.024 9.088-19.264 9.472-30.656l-24.64-1.856c-1.344 12.288-5.824 21.568-13.44 27.84-7.68 6.336-18.944 9.408-33.856 9.408-15.552 0-26.88-2.88-33.984-8.576s-10.688-12.544-10.688-20.544c0-6.976 2.56-12.736 7.552-17.28 4.928-4.48 17.856-9.152 38.72-13.888 20.928-4.672 35.264-8.832 43.072-12.352 11.328-5.184 19.648-11.84 25.024-19.84 5.44-8 8.128-17.216 8.128-27.648-0.128-10.432-3.136-20.096-9.024-29.248zM863.488 66.944h-64.32v-171.392h-25.664v171.392h-64v22.912h153.984l-0-22.912z"  horiz-adv-x="1025" />

    
    <glyph glyph-name="arrow-left-outline" unicode="&#58894;" d="M236.593 384.32l524.149 474.593c8.696 7.929 9.336 21.357 1.471 30.054-7.865 8.76-21.357 9.4-30.054 1.471l-541.606-490.323c-0.192-0.256-0.064-0.767-0.384-1.023-0.256-0.256-0.767-0.128-1.023-0.448-1.726-1.918-1.471-4.476-2.43-6.778-1.023-2.558-2.622-4.732-2.622-7.481s1.599-4.86 2.622-7.481c0.959-2.238 0.703-4.796 2.43-6.714 0.256-0.32 0.767-0.192 1.023-0.448 0.32-0.384 0.192-0.895 0.512-1.151l541.606-490.259c4.028-3.709 9.144-5.435 14.196-5.435 5.819 0 11.574 2.302 15.794 6.906 7.865 8.76 7.162 22.189-1.471 30.054l-524.213 474.465z"  horiz-adv-x="1024" />

    
    <glyph glyph-name="search-outline" unicode="&#58895;" d="M195.712 459.968c0 142.4 115.904 258.24 258.176 258.24v45.952c-167.68 0-304.256-136.512-304.256-304.256h46.080zM1017.344-88.768l-247.936 247.936c0.064 0.064 0.192 0.192 0.32 0.256l-32.64 32.576c-71.104-75.136-171.84-122.176-283.264-122.176-214.912 0-389.888 174.912-390.016 389.888 0.128 215.104 175.040 390.144 390.080 390.208 215.040 0 390.080-175.040 390.208-390.144 0-87.040-28.736-167.488-77.12-232.512l32.832-32.832c56.576 73.536 90.304 165.568 90.304 265.344-0.128 240.512-195.776 436.224-436.224 436.224-240.384-0.064-436.032-195.84-436.16-436.288 0.128-240.384 195.776-435.968 436.032-435.968 107.52 0 205.888 39.168 281.984 103.808l248.96-248.896c4.544-4.48 10.496-6.656 16.32-6.656 5.952 0 11.84 2.176 16.32 6.656 8.896 9.024 8.896 23.616 0 32.576z"  horiz-adv-x="1025" />

    
    <glyph glyph-name="notice-outline" unicode="&#58896;" d="M594.368 594.304v239.616c0 35.968-28.672 62.080-68.16 62.080-21.888 0-43.264-8.32-58.432-22.592l-200.64-187.52c-2.24-2.048-4.544-4.288-6.976-6.528-22.4-21.376-50.304-47.936-94.208-62.080l-21.44-5.504-1.472-0.32c-0.512-0.128-1.152-0.256-1.728-0.384l-30.336-5.632 0.768-2.112-0.896-0.256c-49.728-12.8-88.704-65.408-88.704-119.68v-198.72c0-54.336 38.912-106.88 88.704-119.68l0.896-0.256-0.832-2.24 30.336-5.504c0.576-0.128 1.216-0.256 1.728-0.384s1.088-0.256 1.6-0.384l21.376-5.504c43.904-14.144 71.808-40.704 94.208-62.080 2.368-2.24 4.672-4.416 6.912-6.656l200.384-187.2c15.488-14.464 36.864-22.784 58.752-22.784 17.152 0 33.28 5.184 45.312 14.592 14.72 11.456 22.848 28.288 22.848 47.488v269.568c60.032 18.048 104.128 97.408 104.128 195.328 0 97.92-44.032 177.28-104.128 195.328zM568.128 252.032h-26.112v-318.016c0-3.456-1.024-4.928-2.624-6.208-2.88-2.176-7.744-3.52-13.184-3.52-8.576 0-17.088 3.2-22.976 8.768l-200.256 187.136c-2.176 2.048-4.416 4.096-6.656 6.336-25.024 23.872-59.328 56.576-115.2 74.304l-0.896 0.256-56.256 14.528c-26.368 6.784-49.408 39.040-49.408 69.056l-0 198.72c0 30.016 23.104 62.208 49.408 68.992l57.152 14.784c55.872 17.792 90.176 50.432 115.2 74.304 2.24 2.24 4.48 4.288 6.528 6.208l200.576 187.392c5.76 5.376 14.272 8.576 22.784 8.576 4.736 0 15.808-0.96 15.808-9.664v-288.064l26.112-0.064c36.928 0 78.016-60.352 78.016-146.88s-41.088-146.88-78.016-146.944zM917.632 649.088l-36.032-38.016c56-53.056 87.936-124.672 89.984-201.792 2.048-77.056-26.048-150.336-79.104-206.336l38.016-36.032c62.656 66.048 95.872 152.64 93.44 243.776-2.496 91.072-40.256 175.744-106.304 238.4zM780.608 490.944c24.896-23.552 39.040-55.488 40-89.728 0.896-34.304-11.648-66.944-35.2-91.84l37.952-36.032c33.28 35.072 50.88 80.96 49.536 129.28-1.28 48.256-21.248 93.12-56.32 126.4l-35.968-38.080z"  horiz-adv-x="1025" />

    
    <glyph glyph-name="process-outline" unicode="&#58897;" d="M603.392-45.888c-146.624-32.704-297.472 11.2-403.648 117.376-82.432 82.368-127.872 192-127.872 308.48 0 115.84 44.928 224.64 126.336 306.88l16.448-152.32c1.216-11.328 10.816-19.712 21.888-19.712 0.832 0 1.536 0.064 2.368 0.128 12.096 1.344 20.864 12.16 19.584 24.32l-20.736 192.32c-1.216 11.2-10.624 19.712-21.952 19.712l-193.536 0.192c-12.224 0-22.080-9.856-22.080-22.016s9.856-22.080 22.016-22.080l134.528-0.192c-83.2-89.152-128.896-204.672-128.896-327.232 0-128.256 49.92-248.896 140.736-339.648 91.392-91.456 212.928-140.928 338.816-140.928 35.072 0 70.464 3.904 105.6 11.712 11.904 2.624 19.392 14.464 16.704 26.304-2.624 11.904-14.464 19.328-26.304 16.704zM1002.112 57.408l-140.928 0.128c178.368 188.032 175.616 485.952-8.704 670.208-116.8 116.8-283.072 165.12-444.544 129.28-11.904-2.624-19.456-14.4-16.768-26.304 2.624-11.904 14.464-19.456 26.304-16.768 146.752 32.576 297.728-11.328 403.904-117.376 168.704-168.64 169.984-442.176 4.096-612.608l-15.744 146.24c-1.344 12.096-12.032 20.8-24.32 19.584-12.096-1.344-20.864-12.16-19.584-24.256l20.736-192.448c1.216-11.2 10.688-19.712 21.952-19.712l193.6-0.064c12.16 0 22.080 9.856 22.080 22.016 0 12.224-9.856 22.080-22.080 22.080zM599.68 375.808c-10.56 7.744-22.4 14.080-35.584 18.944-13.184 4.928-26.56 9.472-40.064 13.568l9.344 136.704c9.216-1.28 17.408-3.584 24.512-6.656 7.168-3.072 13.504-6.208 18.944-9.344 5.504-3.072 10.112-5.888 14.016-8.192 3.84-2.304 7.104-3.52 9.728-3.52 4.864 0 9.216 2.816 12.928 8.448l12.16 18.688c-11.328 10.88-24.064 20.16-38.4 27.968-14.336 7.68-31.36 12.8-51.2 15.232l4.032 55.872h-18.56c-4.096 0-7.424-1.344-9.92-4.16-2.432-2.88-3.84-6.080-4.16-9.6l-2.944-41.216c-19.584 0-36.864-3.328-51.968-9.792s-27.712-14.912-37.888-25.088c-10.24-10.176-18.048-21.888-23.488-34.944-5.376-13.12-8.064-26.56-8.064-40.384 0-18.304 3.072-33.536 9.216-45.696 6.080-12.16 14.208-22.272 24.256-30.336 10.112-8 21.504-14.528 34.176-19.52 12.672-4.928 25.664-9.408 38.784-13.44l-10.432-149.888c-12.8 1.472-23.808 4.416-32.96 8.768s-16.96 8.832-23.488 13.44c-6.656 4.608-12.16 8.704-16.768 12.224-4.416 3.584-8.512 5.376-12.096 5.376-2.624 0-5.12-0.64-7.616-1.984-2.368-1.28-4.288-2.944-5.632-5.12l-14.912-23.104c13.568-14.144 29.696-25.728 48.384-34.88 18.752-9.216 39.552-14.72 62.336-16.832l-4.224-63.808h18.688c3.968 0 7.104 1.344 9.664 4.032 2.56 2.752 4.032 5.952 4.352 9.472l3.392 50.56c20.16 0 38.080 3.52 53.824 10.624 15.744 7.040 28.992 16.256 39.808 27.648 10.88 11.328 19.072 24.448 24.768 39.36 5.568 15.040 8.448 30.976 8.448 47.936 0 17.344-3.328 31.936-9.792 43.456-6.464 11.648-15.040 21.376-25.6 29.184zM492.928 418.496c-8.768 2.944-16.96 6.4-24.512 10.176s-14.208 8.256-19.84 13.312-9.984 10.944-13.184 17.6c-3.2 6.656-4.8 14.592-4.8 23.552 0 7.744 1.344 15.104 4.224 22.208 2.752 7.040 7.104 13.44 12.8 19.072 5.76 5.632 13.12 10.304 22.016 14.080 9.024 3.84 19.584 6.272 31.808 7.36l-8.512-127.36zM582.336 266.752c-3.328-8.768-8.128-16.448-14.656-22.976-6.528-6.656-14.464-12.032-24-16.256-9.472-4.16-20.352-6.912-32.576-8.064l9.536 140.608c9.28-3.008 17.856-6.336 25.984-9.856s15.104-7.808 21.12-12.672c6.080-4.992 10.816-10.816 14.336-17.536 3.52-6.784 5.248-14.912 5.248-24.32-0-10.56-1.728-20.16-4.992-28.928z"  horiz-adv-x="1025" />

    
    <glyph glyph-name="arrow-up-outline" unicode="&#58898;" d="M1018.88 127.744l-491.008 541.824c-0.256 0.32-0.768 0.192-0.96 0.512-0.32 0.256-0.192 0.704-0.512 0.96-1.92 1.728-4.416 1.472-6.592 2.368-2.688 1.152-4.928 2.752-7.744 2.752-2.624 0-4.672-1.536-7.104-2.496s-5.056-0.768-7.104-2.56c-0.32-0.32-0.192-0.704-0.512-1.024-0.256-0.32-0.768-0.192-1.024-0.512l-490.432-542.144c-3.712-4.096-5.504-9.216-5.504-14.336 0-5.76 2.304-11.52 6.976-15.744 8.704-7.872 22.144-7.232 30.080 1.472l474.688 524.736 475.136-524.416c7.936-8.704 21.44-9.344 30.080-1.408 8.704 7.808 9.408 21.248 1.536 30.016z"  horiz-adv-x="1025" />

    
    <glyph glyph-name="arrow-down-outline" unicode="&#58899;" d="M1018.496 640.256l-491.008-541.824c-0.256-0.32-0.768-0.192-1.024-0.512-0.32-0.256-0.192-0.768-0.512-1.024-1.856-1.664-4.352-1.408-6.592-2.368-2.688-1.152-4.928-2.752-7.744-2.752-2.624 0-4.672 1.536-7.104 2.496s-5.056 0.768-7.104 2.56c-0.32 0.32-0.192 0.768-0.512 1.088-0.256 0.32-0.768 0.192-1.024 0.512l-490.368 542.144c-3.712 4.096-5.504 9.216-5.504 14.336 0 5.76 2.304 11.52 6.976 15.744 8.704 7.872 22.144 7.232 30.080-1.472l474.688-524.736 475.136 524.416c7.936 8.704 21.44 9.344 30.080 1.408 8.704-7.808 9.408-21.248 1.536-30.016z"  horiz-adv-x="1024" />

    
    <glyph glyph-name="article-outline" unicode="&#58900;" d="M707.84 272.704h-400.768c-12.224 0-22.272-9.92-22.272-22.272 0-12.224 9.984-22.272 22.272-22.272h400.768c12.224 0 22.208 9.984 22.208 22.272-0.064 12.288-9.984 22.272-22.208 22.272zM707.84 94.656h-400.768c-12.224 0-22.272-9.984-22.272-22.272s9.984-22.336 22.272-22.336h400.768c12.224 0 22.208 9.984 22.208 22.336-0.064 12.224-9.984 22.272-22.208 22.272zM877.12 668.416l-218.88 218.752c-4.032 5.248-10.112 8.832-17.216 8.832v0h-0.512c0 0-0.064 0-0.128 0h-422.4c-49.088 0-88.96-39.872-88.96-89.024v-845.952c0-49.152 39.872-89.024 88.96-89.024h578.816c49.216 0 89.088 39.872 89.088 89.024v689.536c0 0 0 0 0 0.064v0.512c0 7.168-3.648 13.184-8.768 17.28zM663.232 820.736l147.392-147.392h-147.392v147.392zM841.344-38.976c0-24.576-19.968-44.48-44.48-44.48h-578.88c-24.576 0-44.48 19.968-44.48 44.48l-0 845.952c0 24.576 19.968 44.544 44.48 44.544h400.704v-200.32c0-12.288 9.984-22.272 22.336-22.272h200.32v-667.904zM284.8 428.544c0-12.288 9.984-22.336 22.272-22.336h400.768c12.224 0 22.208 9.984 22.208 22.336 0 12.224-9.92 22.272-22.208 22.272h-400.768c-12.288 0-22.272-9.984-22.272-22.272z"  horiz-adv-x="1024" />

    
    <glyph glyph-name="arrow-down" unicode="&#58901;" d="M0 640l512-512 512 512z"  horiz-adv-x="1024" />

    
    <glyph glyph-name="filter-outline" unicode="&#58902;" d="M940.864 786.752h-857.728c-51.264 0-83.136-22.208-83.136-58.176 0-20.416 11.072-41.856 32.896-63.68l378.304-378.368v-343.744l45.696 22.144 0 340.608-391.68 391.68c-18.112 18.112-19.52 28.608-19.52 31.36 0 9.088 22.976 12.48 37.44 12.48h857.728c14.464 0 37.44-3.456 37.44-12.48 0-2.752-1.344-13.248-19.52-31.296l-391.68-391.744v-287.36l45.696 22.016v246.4l378.304 378.432c21.824 21.696 32.896 43.136 32.896 63.552 0 35.968-31.872 58.176-83.136 58.176z"  horiz-adv-x="1024" />

    
    <glyph glyph-name="arrow-right-outline" unicode="&#58903;" d="M747.368 384.064l-524.475 474.83c-8.637 7.933-9.34 21.368-1.471 30.069 7.869 8.765 21.368 9.404 30.069 1.471l541.877-490.568c0.32-0.256 0.192-0.768 0.512-1.024 0.256-0.32 0.768-0.192 1.024-0.512 1.727-1.919 1.471-4.478 2.431-6.781 1.024-2.559 2.623-4.734 2.623-7.485s-1.599-4.862-2.623-7.485c-0.96-2.239-0.704-4.798-2.431-6.717-0.256-0.32-0.768-0.192-1.024-0.448-0.32-0.32-0.192-0.832-0.512-1.088l-541.877-490.504c-4.094-3.711-9.213-5.438-14.267-5.438-5.822 0-11.58 2.303-15.802 6.909-7.869 8.765-7.165 22.2 1.471 30.069l524.475 474.702z"  horiz-adv-x="1024" />

    
    <glyph glyph-name="arrow-up" unicode="&#58904;" d="M0 128l512 512 512-512z"  horiz-adv-x="1024" />

    
    <glyph glyph-name="position-outline" unicode="&#58905;" d="M519.488-128c-5.056 0-10.112 1.792-14.272 5.312-16.896 14.464-415.232 356.672-415.232 589.248 0 236.8 192.704 429.44 429.504 429.44s429.44-192.64 429.44-429.44c0-232.576-398.208-574.784-415.104-589.248-4.16-3.52-9.28-5.312-14.336-5.312v0zM519.488 851.968c-212.544 0-385.408-172.8-385.408-385.344 0-189.184 314.048-479.616 385.408-543.232 71.424 63.616 385.408 354.048 385.408 543.232 0.064 212.48-172.928 385.344-385.408 385.344v0zM519.488 268.352c-109.312 0-198.208 88.96-198.208 198.208 0 109.312 88.896 198.208 198.208 198.208 109.248 0 198.208-88.896 198.208-198.208 0-109.248-88.96-198.208-198.208-198.208v0zM519.488 620.736c-84.992 0-154.112-69.184-154.112-154.176s69.12-154.112 154.112-154.112 154.176 69.12 154.176 154.112-69.184 154.176-154.176 154.176v0z"  horiz-adv-x="1024" />

    
    <glyph glyph-name="flight-outline" unicode="&#58906;" d="M976.704 478.336c37.248 13.568 56.512 54.784 43.008 92.16-13.632 37.312-54.848 56.576-92.16 42.944l-334.656-121.792-291.84 276.352-104.576-38.016 207.36-307.072-185.792-67.648-116.736 110.528-101.312-36.864 165.952-245.632 810.752 295.040zM92.864 425.152l116.736-110.528 248.896 90.56-207.424 307.008 41.536 15.104 291.84-276.288 355.136 129.216c4.096 1.472 8.32 2.24 12.48 2.24 15.36 0 29.184-9.664 34.432-24.064 6.784-18.944-2.944-40-21.952-46.912l-784.768-285.632-125.184 185.344 38.272 13.952zM35.328 36.096h988.672v-35.328h-988.672v35.328z"  horiz-adv-x="1025" />

    
    <glyph glyph-name="phone-outline" unicode="&#58907;" d="M821.318-127.808c-198.939 0-405.044 91.951-565.462 252.241-168.288 168.416-260.175 379.961-255.312 583.635l0.192 7.679 4.735 6.015c14.205 18.045 28.219 33.914 42.808 48.567 53.622 53.558 116.522 94.574 187.293 121.897 6.207 2.432 13.565 3.775 21.692 3.775 24.571 0 64.692-13.054 73.33-36.601 24.891-69.299 56.501-159.778 79.281-246.034 4.351-16.509-0.384-64.884-23.996-79.729l-81.521-51.702c-5.567-3.391-7.743-9.598-8.638-14.141-2.687-13.885 2.368-31.802 13.31-46.711 32.314-44.088 69.555-87.856 110.891-129.896 41.912-41.208 85.552-78.385 129.32-110.187 22.14-16.381 52.662-17.789 60.597-5.055l51.894 81.841c13.437 20.732 52.214 25.275 66.036 25.275 4.863 0 9.086-0.384 12.798-1.216 105.516-23.548 168.288-43.832 248.465-80.241 24.955-11.198 42.744-65.076 31.226-94.382-27.387-70.579-68.211-133.543-121.705-187.165-15.165-14.973-31.418-29.37-48.695-42.808l-6.079-4.735-22.46-0.32zM46.487 699.301c-2.176-188.765 84.656-384.888 238.675-539.035l3.455-3.391c151.524-151.588 345.855-238.675 532.7-238.675l6.271 0.128c13.629 11.006 26.555 22.524 38.585 34.426 48.823 48.951 86.256 106.54 111.211 171.232 3.071 7.551-4.095 31.61-9.982 37.433-74.162 33.21-134.631 52.662-236.692 75.442-14.397-0.384-28.603-3.775-32.058-6.335l-49.591-79.089c-22.012-35.705-82.8-39.993-126.824-7.679-45.623 33.146-90.927 71.795-134.759 114.858-43.128 43.96-81.905 89.327-115.434 135.271-18.94 25.723-26.811 55.862-21.5 82.672 3.711 19.26 14.141 35.001 29.37 44.344l81.329 51.638c1.472 3.327 5.183 23.036 4.031 29.307-22.332 84.272-53.43 173.471-78.129 241.875-2.24 0.64-17.341 6.207-29.882 6.207-3.583 0-4.927-0.64-5.055-0.64-64.692-25.019-122.345-62.58-171.36-111.531-11.646-11.646-22.972-24.315-34.362-38.457v0z"  horiz-adv-x="1024" />

    
    <glyph glyph-name="idcard-outline" unicode="&#58908;" d="M953.28 712.576h-882.56c-38.976 0-70.72-31.744-70.72-70.784v-571.072c0-38.976 31.744-70.72 70.72-70.72h882.496c39.040 0 70.784 31.744 70.784 70.72v571.072c0 39.040-31.744 70.784-70.72 70.784zM986.368 70.72c0-18.24-14.848-33.088-33.152-33.088l-882.496-0c-18.24 0-33.152 14.784-33.152 33.088v571.072c0 18.24 14.848 33.088 33.152 33.088h882.496c18.24 0 33.152-14.784 33.152-33.088v-571.072zM798.208 333.312c-5.184 1.216-9.344 5.312-10.944 10.688-1.024 3.648-1.728 10.752 4.672 17.6 33.152 31.744 53.696 83.52 53.696 135.040 0 78.528-50.88 135.488-121.024 135.488-70.080 0-120.96-57.024-120.96-135.488 0-50.432 19.712-101.12 51.456-132.992 0.384-0.448 0.832-0.896 1.216-1.344 7.232-7.488 6.528-14.656 5.44-18.368-1.6-5.44-5.824-9.536-10.304-10.624-100.48-19.328-179.072-75.84-179.072-128.512 0-64.064 100.8-77.184 252.224-77.184s252.288 13.12 252.288 77.184c0.064 52.8-78.848 109.376-178.688 128.512zM724.608 165.248c-186.752 0-214.656 24.832-214.656 39.552 0 25.6 57.856 74.048 149.248 91.776 18.368 4.224 33.216 18.368 38.656 36.8 5.44 18.368 0.768 38.080-12.544 53.056-0.64 0.96-1.344 1.728-2.176 2.56-25.344 24.576-41.792 66.816-41.792 107.712 0 58.496 33.472 97.856 83.328 97.856s83.328-39.36 83.328-97.856c0-41.088-16.512-83.392-42.688-108.544-14.464-15.168-19.776-35.712-14.144-54.72 5.44-18.304 20.032-32.32 39.104-36.864 91.008-17.408 149.056-65.92 149.056-91.712 0-14.784-27.904-39.616-214.72-39.616zM245.888 323.456h-155.776c-10.432 0-18.816-8.448-18.816-18.816 0-10.432 8.384-18.88 18.816-18.88h155.776c10.368 0 18.816 8.448 18.816 18.88 0 10.368-8.448 18.816-18.816 18.816zM453.504 323.456h-155.776c-10.368 0-18.816-8.448-18.816-18.816 0-10.432 8.448-18.88 18.816-18.88h155.776c10.432 0 18.88 8.448 18.88 18.88 0 10.368-8.448 18.816-18.88 18.816zM245.888 444.224h-155.776c-10.432 0-18.816-8.448-18.816-18.816 0-10.432 8.384-18.816 18.816-18.816h155.776c10.368 0 18.816 8.384 18.816 18.816s-8.448 18.816-18.816 18.816zM245.888 200.704h-155.776c-10.432 0-18.816-8.384-18.816-18.816 0-10.368 8.384-18.816 18.816-18.816h155.776c10.368 0 18.816 8.448 18.816 18.816 0 10.432-8.448 18.816-18.816 18.816z"  horiz-adv-x="1024" />

    
    <glyph glyph-name="close-empty" unicode="&#58909;" d="M1018.529-96.249l-452.786 453.426c-3.392 3.456-7.744 5.248-12.288 5.504-5.056 0.256-10.176-1.536-14.080-5.44-7.232-7.232-7.232-19.071 0-26.367l452.658-453.426c7.296-7.296 19.135-7.232 26.431 0s7.296 19.071 0.064 26.303zM992.354 830.507c3.52 3.584 5.376 8.128 5.632 12.736 0.32 5.184-1.6 10.56-5.568 14.656-7.552 7.552-19.839 7.552-27.391 0l-469.682-468.594c-0.896-0.96-1.408-2.176-2.176-3.264l-460.978-459.954c-7.552-7.488-7.488-19.775 0-27.327 7.552-7.552 19.775-7.552 27.327-0.064l469.682 468.53c1.024 1.024 1.536 2.24 2.304 3.456l460.85 459.826zM485.233 410.744c7.232 7.232 7.232 19.071 0 26.303l-452.722 453.426c-3.456 3.392-7.808 5.248-12.288 5.44-5.056 0.32-10.176-1.536-14.080-5.376-7.296-7.296-7.296-19.135-0.064-26.367l452.722-453.426c7.296-7.36 19.135-7.296 26.431 0z"  horiz-adv-x="1025" />

    
    <glyph glyph-name="checkmark" unicode="&#58910;" d="M1016.512 710.656c-9.856 9.728-25.856 9.728-35.712-0.128l-592.512-596.736-349.44 352.384c-2.88 2.88-7.168 3.712-11.904 2.88-5.504-1.088-11.584-4.416-16.896-9.728-9.792-9.792-12.992-22.656-6.976-28.736l367.296-370.432c0.064 0 0.064-0.128 0.064-0.128l0.128-0.064 6.72-6.784c6.016-6.144 18.88-3.008 28.672 6.848 0.064 0 0.064 0.064 0.128 0.128v0l610.496 614.784c4.672 4.736 7.104 10.624 7.424 16.704 0.32 6.784-2.24 13.76-7.488 19.008z"  horiz-adv-x="1025" />

    
    <glyph glyph-name="share-outline" unicode="&#58911;" d="M846.976 161.984c-48.384 0-91.008-24.064-117.376-60.544l-426.624 246.272c3.072 11.648 5.184 23.68 5.184 36.288s-2.112 24.64-5.184 36.288l426.56 246.272c26.368-36.544 68.992-60.608 117.44-60.608 80 0 145.024 65.152 145.024 145.024-0 79.936-65.024 145.024-145.024 145.024s-145.024-65.088-145.024-145.088c0-16.32 3.328-31.744 8.32-46.4-0.384-0.192-0.832 0.064-1.216-0.128l-422.976-244.352c-25.6 41.216-70.912 68.928-122.944 68.928-79.936 0.064-145.024-65.024-145.024-144.96s65.088-145.024 145.024-145.024c52.032 0 97.344 27.776 122.944 68.928l423.040-244.288c0.384-0.192 0.832-0.128 1.216-0.32-4.992-14.656-8.32-30.080-8.32-46.4 0-79.872 65.024-144.96 145.024-144.96s145.024 65.088 145.024 144.96c-0.064 80.064-65.088 145.088-145.088 145.088zM846.976 852.992c56.32 0 102.080-45.76 102.080-102.080 0-56.256-45.76-102.016-102.080-102.016-56.256 0-102.080 45.76-102.080 102.016 0.064 56.32 45.824 102.080 102.080 102.080zM163.136 281.92c-56.192 0-102.016 45.76-102.016 102.080 0 56.256 45.824 102.016 102.016 102.016 56.32 0 102.080-45.76 102.080-102.016 0-56.32-45.76-102.080-102.080-102.080zM846.976-85.056c-56.256 0-102.080 45.76-102.080 102.016 0 56.32 45.824 102.080 102.080 102.080 56.32 0 102.080-45.76 102.080-102.080 0-56.256-45.76-102.016-102.080-102.016z"  horiz-adv-x="1024" />

    
    <glyph glyph-name="collect-outline" unicode="&#58912;" d="M519.514-64c-3.52 0-7.040 0.896-10.304 2.688-1.088 0.576-2.112 1.28-3.072 2.048-1.664 1.28-6.848 4.8-14.592 10.112-33.472 23.296-111.936 77.824-163.648 117.824-192.832 150.144-295.168 261.376-313.152 340.032-9.088 27.84-14.144 59.392-14.656 91.968-1.152 86.528 31.424 169.856 89.344 228.672 52.16 53.12 120.64 82.56 192.64 82.816h0.064c91.328 0 173.312-41.28 227.52-111.936 52.864 72.896 134.72 116.16 224.704 117.44l5.504 0.064c154.56 0 282.048-136.512 284.16-304.192 0.384-32.448-3.904-64.192-12.8-94.336-15.424-77.248-117.696-194.496-303.36-346.624-73.28-60.416-132.736-105.28-176.832-133.248-3.52-2.176-7.488-3.328-11.52-3.328zM285.21 769.536c-63.488-0.192-121.152-25.088-165.376-70.016-49.92-50.816-78.016-123.072-77.056-198.272 0.384-28.224 4.8-55.616 13.12-81.28 11.072-48.32 71.296-140.928 298.24-317.568 50.752-39.232 128.576-93.376 161.856-116.416 1.344-1.024 2.688-1.92 4.032-2.816 41.088 27.264 96.256 69.312 160.768 122.432 221.632 181.568 279.488 276.352 289.088 323.968 8.192 27.904 11.904 55.36 11.584 83.52-1.92 144.384-110.272 261.952-241.6 261.952l-4.736-0.064c-85.824-1.088-162.944-47.424-206.4-123.84-3.776-6.592-10.752-10.688-18.24-10.752-0.128 0-0.256 0-0.32 0-7.424 0-14.4 3.904-18.24 10.24-45.056 74.496-122.304 118.912-206.72 118.912zM857.37 430.72c-1.472 0-2.944 0.192-4.416 0.512-11.52 2.368-18.88 13.696-16.512 25.28l3.2 12.928c4.032 13.696 5.888 27.648 5.632 41.792-0.896 71.616-48.576 127.616-108.608 127.616-11.84 0-21.376 9.536-21.376 21.376 0 11.776 9.472 21.312 21.312 21.312 83.776 0 150.272-74.56 151.36-169.728 0.32-18.304-2.176-36.544-7.296-54.208l-2.432-9.856c-2.112-10.048-10.944-17.024-20.864-17.024z"  horiz-adv-x="1025" />

    
    <glyph glyph-name="wallet-outline" unicode="&#58913;" d="M922.88 568.32h-12.864l-232.896 327.68-461.12-327.68h-112.32c-45.248 0-81.92-36.672-81.92-81.92v-532.416c0-45.248 36.672-81.92 81.92-81.92h819.2c45.248 0 81.92 36.672 81.92 81.92l-0 491.456v40.96c0 45.248-36.672 81.92-81.92 81.92zM667.456 838.848l192.256-270.592-573.056-0 380.8 270.592zM963.904 158.72h-245.824v122.88h245.824v-122.88zM963.904 445.44v-122.88h-286.72v-204.8h286.72v-163.84c0-22.592-18.368-41.024-41.024-41.024h-819.2c-22.656 0-40.96 18.432-40.96 41.024l-0 532.48c0 22.592 18.304 41.024 40.96 41.024h819.2c22.656 0 41.024-18.432 41.024-41.024h-327.744v-40.96h327.744zM759.040 240.64h40.96v-40.96h-40.96v40.96zM554.24 486.4h40.96v-40.96h-40.96v40.96zM472.32 486.4h41.024v-40.96h-41.024v40.96z"  horiz-adv-x="1024" />

    
    <glyph glyph-name="gear-outline" unicode="&#58914;" d="M570.496-128h-116.992c-30.144 0-54.656 24.512-54.656 54.656v75.776c0 7.744-7.232 17.856-14.656 20.352l-35.648 14.656c-11.008 5.376-21.184 1.856-26.24-3.264l-53.632-53.632c-20.48-20.48-56.704-20.48-77.248 0l-82.816 82.816c-10.24 10.24-16 23.872-16 38.656 0 14.656 5.76 28.352 16.128 38.656l53.376 53.504c5.44 5.376 7.488 17.984 4.032 24.896l-14.72 35.648c-3.072 8.768-13.184 16.128-21.056 16.128h-75.712c-30.080 0-54.656 24.512-54.656 54.592v117.12c0 30.144 24.576 54.656 54.656 54.656h75.712c7.872 0 17.984 7.296 20.48 14.72l14.592 35.584c4.16 8.512 2.176 20.8-3.392 26.368l-53.44 53.44c-10.24 10.24-16 24-16 38.656 0 14.656 5.76 28.352 16.128 38.656l82.624 82.752c20.544 20.608 56.768 20.608 77.312 0l53.44-53.504c5.248-5.184 18.368-7.296 24.896-3.968l35.648 14.72c8.96 3.072 16.192 13.184 16.192 20.992v75.712c-0.064 30.144 24.512 54.656 54.656 54.656h116.992c30.208 0 54.784-24.512 54.784-54.656v-75.712c0-7.808 7.296-17.92 14.656-20.416l35.648-14.656c10.816-5.248 21.12-1.792 26.368 3.392l53.44 53.504c20.672 20.672 56.704 20.608 77.312 0.064l82.752-82.816c10.24-10.24 15.936-24 15.936-38.656 0-14.656-5.696-28.416-16.064-38.656l-53.44-53.44c-5.44-5.568-7.424-17.856-4.032-24.96l14.848-35.648c3.008-8.96 13.12-16.192 20.928-16.192h75.776c30.144 0 54.592-24.512 54.592-54.592v-117.056c0-30.080-24.448-54.592-54.592-54.592h-75.776c-7.808 0-17.92-7.232-20.416-14.656l-14.656-35.904c-4.032-8.256-2.048-20.864 3.392-26.24l53.44-53.504c10.304-10.24 16-24 16-38.656 0-14.72-5.696-28.352-16.064-38.72l-82.56-82.752c-20.736-20.48-56.704-20.48-77.248 0l-53.632 53.504c-5.184 5.248-18.24 7.36-24.832 4.096l-35.648-14.72c-8.896-3.136-16.192-13.248-16.192-20.992v-75.776c0.064-30.080-24.512-54.592-54.72-54.592v0zM338.496 85.376c10.368 0 20.352-2.24 28.864-6.656l32.64-13.376c24.704-8.256 44.352-35.52 44.352-62.976v-75.776c0-4.992 4.096-9.152 9.152-9.152h116.992c5.12 0 9.28 4.096 9.28 9.152v75.776c0 27.52 19.648 54.72 45.76 63.488l32.704 13.632c19.648 9.984 57.216 5.376 75.904-13.248l53.504-53.504c4.48-4.48 8.384-4.608 13.056 0l82.56 82.752c2.368 2.368 2.688 4.992 2.688 6.528 0 1.344-0.32 4.096-2.56 6.4l-53.632 53.504c-19.456 19.52-24.832 52.736-12.48 77.376l13.504 32.768c8 24.64 35.392 44.352 62.976 44.352h75.776c4.928 0 9.088 4.16 9.088 9.088l0 117.056c0 4.928-4.096 9.152-9.088 9.152h-75.776c-27.648 0-54.976 19.776-63.616 45.888l-13.504 32.64c-11.712 23.040-6.272 56.384 13.12 75.84l53.44 53.504c2.368 2.304 2.688 4.992 2.688 6.464 0 1.344-0.32 4.096-2.56 6.4l-82.752 82.88c-4.544 4.544-8.384 4.544-12.992-0.064l-53.504-53.568c-18.752-18.688-53.632-24.448-77.376-12.544l-32.704 13.504c-24.576 8.128-44.224 35.456-44.224 62.976v75.712c0 4.928-4.224 9.152-9.28 9.152h-116.992c-4.928 0-9.152-4.16-9.152-9.152v-75.712c0-27.584-19.776-54.848-45.888-63.616l-32.64-13.568c-19.584-9.984-57.344-5.376-75.904 13.312l-53.504 53.504c-4.544 4.544-8.32 4.544-12.8 0l-82.816-82.816c-2.304-2.304-2.688-5.056-2.688-6.4 0-1.408 0.384-4.096 2.624-6.4l53.568-53.632c19.52-19.52 24.832-52.8 12.544-77.312l-13.376-32.704c-8.192-24.64-35.52-44.352-63.104-44.352h-75.712c-4.928 0-9.216-4.16-9.216-9.152v-117.056c0-4.928 4.224-9.088 9.216-9.088h75.712c27.584 0 54.848-19.776 63.68-45.76l13.504-32.896c11.648-23.104 6.272-56.384-13.184-75.904l-53.568-53.44c-2.304-2.24-2.688-4.992-2.688-6.4 0-1.472 0.384-4.096 2.624-6.4l82.816-82.88c4.544-4.608 8.32-4.608 12.864 0l53.504 53.504c11.904 11.968 30.080 19.2 48.576 19.2v0zM512 206.976c-97.472 0-176.896 79.36-176.896 177.024 0 97.536 79.36 176.96 176.896 176.96 97.6 0 177.024-79.36 177.024-176.96 0-97.6-79.424-177.024-177.024-177.024v0zM512 515.456c-72.448 0-131.392-59.008-131.392-131.456 0-72.512 58.944-131.52 131.392-131.52 72.512 0 131.52 59.008 131.52 131.52 0 72.448-59.008 131.456-131.52 131.456v0z"  horiz-adv-x="1025" />

    
    <glyph glyph-name="delivery-outline" unicode="&#58915;" d="M0 809.28v-748.224h118.144c0-65.28 52.928-118.208 118.208-118.208s118.144 52.928 118.144 118.208h354.496c0-65.28 52.928-118.208 118.144-118.208 65.28 0 118.208 52.928 118.208 118.208l78.656 0v393.728l-78.72 236.288h-315.136v118.208h-630.144zM39.36 769.92h551.36v-433.216h-551.36v433.216zM236.288-17.792c-43.456 0-78.72 35.392-78.72 78.784s35.328 78.72 78.72 78.72 78.72-35.328 78.72-78.72-35.264-78.784-78.72-78.784zM827.072-17.792c-43.456 0-78.72 35.392-78.72 78.784s35.328 78.72 78.72 78.72 78.784-35.328 78.784-78.72-35.328-78.784-78.784-78.784zM984.64 100.352h-46.656c-16.32 45.76-59.584 78.72-110.912 78.72-51.328 0-94.656-33.024-110.912-78.72h-368.896c-16.32 45.76-59.648 78.72-110.912 78.72-51.392 0-94.656-33.024-110.912-78.72h-86.080v196.992h945.216v-196.992zM916.864 651.776l67.776-203.328v-111.744h-354.496v315.072h286.72z"  horiz-adv-x="1024" />

    
    <glyph glyph-name="gift-outline" unicode="&#58916;" d="M37.12 363.52h40.96v-491.52h860.16v491.52h40.96v245.76h-220.352c34.368 30.080 56.576 73.664 56.576 122.944-0.064 90.432-73.408 163.776-163.904 163.776-62.144 0-115.584-35.072-143.36-86.080-27.776 51.008-81.216 86.080-143.36 86.080-90.496 0-163.84-73.344-163.84-163.84 0-49.28 22.208-92.864 56.512-122.944h-220.352v-245.696zM528.64 732.16c0 67.776 55.104 122.88 122.88 122.88s122.88-55.104 122.88-122.88c0-67.84-55.104-122.944-122.88-122.944h-122.88v122.944zM528.64 568.32h409.6v-163.84h-409.6v163.84zM528.64 363.52h368.64v-450.56h-368.64v450.56zM487.68-87.040h-368.704v450.56h368.704v-450.56zM241.92 732.16c0 67.776 55.040 122.88 122.88 122.88 67.776 0 122.88-55.104 122.88-122.88l0-122.88h-122.88c-67.776 0-122.88 55.104-122.88 122.88zM78.080 568.32h409.6v-163.84h-409.6l0 163.84z"  horiz-adv-x="1024" />

    
    <glyph glyph-name="swap-outline" unicode="&#58917;" d="M966.272 559.872h-885.76c-10.368 0-19.84 6.336-23.808 15.936-3.968 9.6-1.792 20.736 5.632 28.032l291.968 292.16 36.416-36.416-248-248.128 823.488-0.064-0-51.52zM692.416-128l-36.416 36.416 248 248.128-823.488 0.064v51.52h885.76c10.432 0 19.84-6.336 23.808-15.936s1.728-20.736-5.632-28.096l-292.032-292.096z"  horiz-adv-x="1024" />

    
    <glyph glyph-name="end-outline" unicode="&#58918;" d="M532.48 894.976v1.024h-40.96v-286.72h40.96v244.736c250.176-10.88 450.56-217.216 450.56-470.016 0-259.776-211.328-471.040-471.040-471.040s-471.040 211.264-471.040 471.040c0 129.792 52.864 247.616 138.112 332.928l-29.12 29.12c-92.608-92.672-149.952-220.672-149.952-362.048 0-282.752 229.248-512 512-512s512 229.248 512 512c0 275.84-218.304 500.096-491.52 510.976zM555.456 340.544c24 24 24 62.848 0 86.848s-289.664 202.816-289.664 202.816 178.752-265.6 202.752-289.6 62.912-24.064 86.912-0.064z"  horiz-adv-x="1024" />

    
    <glyph glyph-name="alert" unicode="&#58919;" d="M512 896c-282.752 0-512-229.248-512-512s229.248-512 512-512 512 229.248 512 512c0 282.752-229.248 512-512 512zM512-88.64c-260.608 0-472.64 212.032-472.64 472.64s212.032 472.64 472.64 472.64 472.64-212.032 472.64-472.64-212.032-472.64-472.64-472.64zM472.64 699.072h78.72v-78.72h-78.72v78.72zM551.36 541.568h-118.080v-39.424h39.36v-393.856h-39.36v-39.36h157.44v39.36h-39.36z"  horiz-adv-x="1024" />

    
    <glyph glyph-name="time-outline" unicode="&#58920;" d="M512 896c-282.304 0-512-229.696-512-512s229.696-512 512-512 512 229.696 512 512-229.696 512-512 512zM512-64c-246.976 0-448 201.024-448 448s201.024 448 448 448 448-201.024 448-448-201.024-448-448-448zM736 416h-192v256c0 17.664-14.336 32-32 32s-32-14.336-32-32v-288c0-17.664 14.336-32 32-32h224c17.664 0 32 14.336 32 32s-14.336 32-32 32z"  horiz-adv-x="1024" />

    
    <glyph glyph-name="close-outline" unicode="&#58921;" d="M544.832 367.616c-2.112 2.048-4.8 3.2-7.552 3.392-3.136 0.064-6.208-1.024-8.64-3.328-4.48-4.48-4.48-11.776-0.064-16.192l277.504-277.952c4.48-4.48 11.776-4.352 16.192 0 4.48 4.48 4.48 11.776 0 16.128l-277.44 277.952zM806.272 657.728c2.112 2.176 3.328 4.928 3.456 7.744 0.192 3.264-0.96 6.528-3.456 9.024-4.608 4.608-12.032 4.608-16.768 0l-287.872-287.232c-0.576-0.576-0.896-1.344-1.28-1.92l-282.624-281.984c-4.672-4.608-4.608-12.096-0.064-16.768 4.672-4.608 12.096-4.608 16.832 0l287.808 287.232c0.64 0.64 1.024 1.344 1.408 2.048l282.56 281.856zM495.36 400.384c4.48 4.416 4.48 11.712 0 16.128l-277.504 277.952c-2.048 2.048-4.736 3.264-7.488 3.392-3.072 0.128-6.272-1.024-8.64-3.328-4.48-4.48-4.48-11.776-0.064-16.192l277.568-277.952c4.48-4.48 11.712-4.48 16.128 0zM512 896c-282.304 0-512-229.632-512-512 0-282.432 229.696-512 512-512s512 229.632 512 512c0 282.368-229.696 512-512 512zM512-107.776c-271.168 0-491.776 220.608-491.776 491.776 0 271.104 220.544 491.776 491.776 491.776s491.776-220.608 491.776-491.776c0-271.104-220.608-491.776-491.776-491.776z"  horiz-adv-x="1024" />

    
    <glyph glyph-name="cart-outline" unicode="&#58922;" d="M913.984 570.816h-185.6v111.168c0 118.208-95.744 214.016-214.016 214.016-118.272 0-214.016-95.872-214.016-214.016v-111.168h-189.248l-49.6-698.816h900.992l-48.512 698.816zM344.704 680.768h0.128c0.128 94.016 76.416 170.24 170.432 170.24 93.696 0 169.472-75.52 170.368-169.024v-111.168h-340.928v109.952zM150.144 527.040h150.208v-73.856c-11.84-7.744-20.096-20.416-20.096-35.584 0-23.872 19.328-43.2 43.2-43.2 23.872 0 43.2 19.328 43.2 43.2 0 16-9.088 29.312-21.952 36.864l0 72.576h340.928v-71.616c-13.76-7.232-23.488-21.248-23.488-37.824 0-23.872 19.392-43.2 43.264-43.2 23.808 0 43.136 19.328 43.136 43.2 0 15.168-8.32 27.904-20.096 35.648v73.792h144.256l44.992-614.848-811.328-5.952 43.776 620.8zM340.672 62.4c-9.088-8.512-20.608-12.608-34.368-12.608-16.96 0-30.848 6.336-41.472 18.944-10.624 12.416-16 32.576-16 60.288 0 27.392 5.504 47.296 16.512 59.968 11.008 12.672 25.408 18.88 43.008 18.88 11.648 0 21.632-3.456 29.76-10.496 8.256-6.784 14.016-17.216 17.28-31.232l33.984 5.248c-4.032 20.864-13.248 36.928-27.392 48.32-14.336 11.392-32.576 17.024-54.976 17.024-17.792 0-34.176-4.096-49.28-12.416-15.104-8.384-26.368-20.864-33.728-37.568-7.232-16.704-11.008-36.224-11.008-58.432 0-34.56 8.448-60.928 25.728-79.296 17.152-18.496 39.936-27.776 68.032-27.776 22.528 0 41.664 6.656 57.024 20.032 15.488 13.504 25.088 32 28.864 55.616l-34.368 4.544c-2.496-17.536-8.256-30.592-17.6-39.040zM585.728 208.32c-6.016 8.384-13.888 15.232-23.552 20.48-9.792 5.184-20.928 7.68-33.28 7.68-16.896 0-32.256-4.288-46.080-13.12-13.696-9.024-24-21.888-30.848-38.656-6.848-16.768-10.24-35.392-10.24-56.064 0-20.992 3.776-39.744 11.392-55.936 7.616-16.32 18.24-28.928 32-38.080 13.76-9.024 28.864-13.568 45.376-13.568 25.344 0 44.48 10.176 57.6 30.656v-25.984h32.576v284.672h-34.944v-102.080zM572.736 68.48c-10.752-12.416-23.744-18.752-38.976-18.752-15.104 0-28.224 6.656-39.36 19.648-11.136 13.12-16.768 33.024-16.768 59.264 0 27.392 5.248 47.296 15.616 60.096 10.496 12.608 23.36 19.072 38.976 19.072 15.936 0 29.312-6.656 40.128-19.968 10.88-13.12 16.384-33.92 16.384-62.144 0-25.728-5.376-44.672-16-57.216zM737.152 306.816c-8.256-5.632-14.272-12.992-17.6-22.016-2.496-6.72-3.776-17.088-3.776-30.848v-21.952h-30.72v-27.2h30.72v-179.2h34.88v179.2h40.256v27.2h-40.256v19.008c0 12.352 2.24 20.864 6.656 25.344 4.48 4.608 12.032 6.72 22.656 6.72 6.4 0 13.248-0.576 20.352-1.856l5.248 30.528c-12.032 2.304-22.848 3.52-32.64 3.52-15.424-0-27.328-2.752-35.776-8.448z"  horiz-adv-x="1024" />

    
    <glyph glyph-name="check" unicode="&#58923;" d="M0 237.696c0 0 292.544-146.24 438.848-365.696 0 0 365.696 512 585.152 658.304v365.696c0 0-292.544-146.304-585.152-731.456l-146.304 292.608-292.544-219.456z"  horiz-adv-x="1024" />

    
    <glyph glyph-name="menu" unicode="&#59027;" d="M128 128h768v85.333333H128v-85.333333z m0 213.333333h768v85.333334H128v-85.333334z m0 298.666667v-85.333333h768V640H128z"  horiz-adv-x="1024" />

    
    <glyph glyph-name="train" unicode="&#58924;" d="M832.414 891.413h-635.285c-58.714-0.036-106.301-47.624-106.337-106.334l-0-514.17c0-58.744 47.594-106.337 106.337-106.337h635.349c0-0 0-0 0-0 58.741 0 106.365 47.601 106.401 106.334l0 514.17c-0.109 58.73-47.725 106.301-106.462 106.337zM263.327 273.394c-38.32 0-69.384 31.064-69.384 69.384s31.064 69.384 69.384 69.384c38.32 0 69.384-31.064 69.384-69.384 0-38.32-31.064-69.384-69.384-69.384zM792.466 273.394c-0.906-0.042-1.969-0.066-3.037-0.066-38.355 0-69.447 31.093-69.447 69.447 0 38.355 31.093 69.447 69.447 69.447 1.023 0 2.042-0.022 3.054-0.066 36.938-1.598 66.393-32.050 66.393-69.382 0-37.287-29.385-67.71-66.26-69.376zM870.005 547.488c0-35.17-28.607-63.841-63.841-63.841h-582.785c-35.233 0-63.841 28.671-63.841 63.841v205.029c0 35.17 28.607 63.841 63.841 63.841h582.785c35.233 0 63.841-28.671 63.841-63.841v-205.029zM696.896 23.064h-364.249l-25.995-41.86h416.43l-26.186 41.86zM648.984 99.902h-268.424l-25.995-41.732h320.478l-26.059 41.732zM741.814 99.902h-2.23l2.23-3.759v3.759zM744.808-53.838h-460.074l-26.059-41.796h512.127l-25.995 41.796zM302.766 119.462h-68.301l-154.122-247.462h66.134zM949.264-128h-68.173l-154.314 247.462h66.198z"  horiz-adv-x="1024" />

    
    <glyph glyph-name="share-ios-outline" unicode="&#58953;" d="M362.944 696.448l-24.576 24.704 172.416 172.352 172.352-172.352-24.512-24.704-147.84 147.84zM493.376 857.92h34.816v-632.448h-34.816zM886.144-128h-748.224v748.224h277.952v-34.88h-243.072v-678.528h678.464v678.528h-235.776v34.88h270.656z"  horiz-adv-x="1024" />

    
    <glyph glyph-name="trash-outline" unicode="&#58954;" d="M304.192 578.88h43.136v-536.32h-43.136zM493.248 578.88h43.136v-536.32h-43.136zM682.24 578.88h43.136v-536.32h-43.136zM32 751.936h960v-43.136h-960zM591.68 807.36l0.064 0.896c0 43.904-35.584 79.616-79.424 79.616s-79.36-35.904-79.36-79.744v-0.768h158.72zM763.904-128h-515.968c-61.184 0-112.704 52.928-112.704 115.84v668.608h43.072v-668.608c0-39.488 31.872-72.896 69.632-72.896h515.968c37.76 0 69.696 33.344 69.696 72.896v668.608h43.072v-668.608c-0.064-62.912-51.648-115.84-112.768-115.84z"  horiz-adv-x="1024" />

    
    <glyph glyph-name="footmark" unicode="&#58955;" d="M332.188-127.115s-171.883-37.983-235.828 383.668c0 0 0 447.613 383.668 447.613 0 0 255.779 0 191.834-319.723 0 0-63.945-127.889-255.779-63.945 0 0-139.911-63.945 0-255.779 0 0 73.92-191.834-83.895-191.834zM144.318 704.166c0-35.316 21.472-63.945 47.959-63.945s47.959 28.629 47.959 63.945c0 35.316-21.472 63.945-47.959 63.945-26.487 0-47.959-28.629-47.959-63.945zM288.194 768.111c-0-0.003-0-0.006-0-0.009 0-35.316 21.472-63.945 47.959-63.945 26.487 0 47.959 28.629 47.959 63.945 0 0.003-0 0.006-0 0.010 0 0.002 0 0.005 0 0.009 0 35.316-21.472 63.945-47.959 63.945-26.487 0-47.959-28.629-47.959-63.945 0-0.003 0-0.006 0-0.010zM424.076 800.083c-0-0-0-0-0-0 0-35.316 21.472-63.945 47.959-63.945 26.487 0 47.959 28.629 47.959 63.945 0 0 0 0 0 0 0 35.316-21.472 63.945-47.959 63.945-26.487 0-47.959-28.629-47.959-63.945zM559.959 768.111c0-0 0-0 0-0 0-35.316 21.472-63.945 47.959-63.945 26.487 0 47.959 28.629 47.959 63.945 0 0 0 0-0 0 0 0 0 0 0 0 0 35.316-21.472 63.945-47.959 63.945-26.487 0-47.959-28.629-47.959-63.945 0-0 0-0 0-0zM735.806 672.194c0-70.631 42.944-127.889 95.917-127.889s95.917 57.258 95.917 127.889c0 70.631-42.944 127.889-95.917 127.889-52.974 0-95.917-57.258-95.917-127.889z"  horiz-adv-x="1024" />

    
    <glyph glyph-name="edit-outline" unicode="&#58956;" d="M199.539 58.421c-12.362 0.011-22.379 10.035-22.379 22.399 0 0.495 0.016 0.987 0.048 1.474l11.644 197.169c0.362 5.953 2.978 11.233 6.997 15.050l587.334 587.408c4.057 4.073 9.669 6.593 15.871 6.593s11.814-2.52 15.87-6.593l185.461-185.461c4.12-4.035 6.675-9.655 6.675-15.871 0-6.216-2.554-11.836-6.671-15.867l-587.871-588.063c-3.875-3.911-9.196-6.385-15.094-6.551l-197.884-11.687zM233.137 268.2l-9.663-163.574 163.51 9.599 565.98 566.172-153.846 153.782-565.98-565.98zM879.944 571.988c-0.027-0-0.060-0-0.092-0-6.192 0-11.796 2.52-15.842 6.591l-166.775 166.775c-3.419 3.928-5.503 9.097-5.503 14.752 0 12.441 10.085 22.527 22.527 22.527 5.639 0 10.795-2.072 14.746-5.497l166.745-166.878c4.020-4.057 6.504-9.642 6.504-15.808 0-12.352-9.97-22.376-22.302-22.462zM293.293 66.164c-0.119-0.002-0.259-0.004-0.399-0.004-12.123 0-21.951 9.828-21.951 21.951 0 1.587 0.169 3.136 0.489 4.627l0.422 1.392c0.448 2.368 1.152 4.8 1.408 7.296 1.28 15.423-3.52 30.334-13.759 40.573s-25.022 14.975-41.853 13.567l-5.568-1.28c-1.038-0.169-2.234-0.265-3.452-0.265-11.146 0-20.407 8.072-22.255 18.689-0.194 1.188-0.294 2.402-0.294 3.64 0 11.137 8.081 20.386 18.7 22.203 3.717 0.915 5.893 1.363 8.325 1.683 30.654 2.752 58.3-6.656 78.139-26.494s29.246-47.357 26.558-77.563c-0.64-4.8-1.408-8.383-2.176-11.839-2.438-10.352-11.504-17.973-22.383-18.176zM1001.601-127.935h-979.138c-0-0-0-0-0-0-12.383 0-22.426 10.020-22.462 22.395l-0 979.142c0 12.351 10.111 22.399 22.527 22.399h485.793c12.357-0.018 22.367-10.039 22.367-22.399 0-12.37-10.028-22.399-22.399-22.399-0.011 0-0.022 0-0.034 0l-463.393-0v-934.341h934.341v463.459c-0.020 0.358-0.032 0.776-0.032 1.197 0 12.37 10.028 22.399 22.399 22.399 12.37 0 22.399-10.028 22.399-22.399 0-0.421-0.012-0.839-0.035-1.255l0.003-485.864c0-0.019 0-0.042 0-0.064 0-12.3-9.971-22.271-22.271-22.271-0.023 0-0.045 0-0.068 0z"  horiz-adv-x="1024" />

    
    <glyph glyph-name="collect" unicode="&#58957;" d="M737.536 807.232l-5.44-0.064c-92.153-1.243-173.352-47.049-223.171-116.806-51.655 68.101-132.619 111.371-223.689 111.371-0.626 0-1.251-0.002-1.876-0.006l0.032 0c-71.424-0.32-139.328-29.44-191.104-82.176-57.408-58.368-89.728-140.992-88.64-226.816 0.448-32.32 5.504-63.616 14.592-91.328 17.728-78.080 119.36-188.288 310.656-337.216 51.328-39.68 129.152-93.824 162.368-116.928 7.616-5.184 12.736-8.832 14.528-10.048 3.623-2.853 8.252-4.576 13.283-4.576 4.205 0 8.129 1.203 11.447 3.285 43.622 27.787 102.694 72.267 175.334 132.171 184.32 150.912 285.632 267.136 300.992 343.872 8.832 29.888 13.056 61.312 12.736 93.504-2.176 166.336-128.704 301.76-282.048 301.76zM877.312 449.984l-2.432-9.856c-1.65-10.197-10.39-17.889-20.926-17.889-11.7 0-21.184 9.484-21.184 21.184 0 1.923 0.256 3.786 0.736 5.557l3.23 12.78c3.904 13.504 5.696 27.456 5.504 41.408-0.896 71.040-48.128 126.656-107.776 126.656-0.019-0-0.041-0-0.064-0-11.7 0-21.184 9.484-21.184 21.184 0 11.677 9.448 21.148 21.117 21.184 83.075 0 149.059-73.984 150.211-168.384 0.256-18.24-2.176-36.416-7.232-53.824z"  horiz-adv-x="1024" />

    
    <glyph glyph-name="label-outline" unicode="&#58958;" d="M601.024-124.928c-27.456 0-54.208 11.072-73.344 30.272l-459.712 460.16c-36.352 35.648-64.96 104.128-64.96 155.776v267.392c0 57.472 46.784 104.256 104.32 104.256h267.392c52.096 0 119.296-27.904 156.352-64.96l459.52-458.944c19.392-20.16 30.4-47.040 30.4-74.048 0-27.52-11.136-54.272-30.4-73.408l-315.52-316.224c-19.261-18.64-45.508-30.163-74.446-30.274zM107.328 848.896c-33.076-0.462-59.766-27.155-60.224-60.188l-0-267.428c0-39.872 23.744-96.896 51.904-124.416l459.776-460.352c21.696-21.824 62.208-22.016 85.44 0.384l315.264 315.904c10.738 10.985 17.364 26.029 17.364 42.622 0 16.721-6.728 31.87-17.625 42.888l-459.259 458.554c-28.672 28.672-84.864 52.032-125.248 52.032h-267.392zM230.784 560.896c-57.472 0-104.32 46.784-104.32 104.32s46.848 104.256 104.32 104.256c57.472 0 104.32-46.784 104.32-104.256s-46.848-104.32-104.32-104.32zM230.784 725.44c-33.296 0-60.288-26.992-60.288-60.288s26.992-60.288 60.288-60.288c33.296 0 60.288 26.992 60.288 60.288 0 33.296-26.992 60.288-60.288 60.288z"  horiz-adv-x="1024" />

    
    <glyph glyph-name="arrow-right-circle-outline" unicode="&#58959;" d="M512-128c-280.64 0-508.928 228.224-508.928 508.928 0 280.576 228.224 508.928 508.928 508.928s508.928-228.288 508.928-508.928c-0.064-280.704-228.288-508.928-508.928-508.928zM512 845.76c-256.32 0-464.832-208.512-464.832-464.832s208.448-464.96 464.832-464.96c256.256 0 464.896 208.64 464.896 464.96s-208.64 464.832-464.896 464.832zM855.744 366.144c-3.815 0.016-7.284 1.48-9.89 3.871l-374.558 339.169c-2.989 2.683-4.861 6.56-4.861 10.874 0 3.808 1.458 7.274 3.847 9.873 2.664 2.994 6.542 4.878 10.86 4.878 3.814 0 7.284-1.469 9.876-3.873l374.583-339.191c2.957-2.702 4.805-6.575 4.805-10.88 0-8.109-6.557-14.687-14.658-14.72zM481.152 27.008c-0.035-0-0.077-0-0.118-0-4.28 0-8.121 1.875-10.748 4.849-2.408 2.598-3.878 6.068-3.878 9.882 0 4.318 1.884 8.196 4.874 10.857l374.607 339.149c2.659 2.636 6.321 4.266 10.363 4.266 8.13 0 14.72-6.59 14.72-14.72 0-4.568-2.081-8.65-5.346-11.35l-374.617-339.092c-2.516-2.379-5.92-3.841-9.665-3.841-0.067 0-0.134 0-0.201 0.001zM849.344 366.144h-688.704c-4.032 0-7.232 8.256-7.232 18.432 0 10.176 3.136 18.432 7.232 18.432h688.704c4.032 0 7.232-8.256 7.232-18.432 0.064-10.176-3.2-18.432-7.232-18.432z"  horiz-adv-x="1024" />

    
    <glyph glyph-name="location-outline" unicode="&#58960;" d="M508.032-17.344l-17.088 20.928c-12.736 15.744-311.68 386.496-311.68 561.664 0.218 181.45 147.254 328.486 328.683 328.704 181.471-0.218 328.506-147.254 328.725-328.683 0-175.189-299.008-545.941-311.68-561.685l-16.96-20.928zM508.032 850.176c-157.266-0.182-284.71-127.604-284.928-284.843-0-137.365 221.056-430.741 284.928-512.469 63.744 81.728 284.864 375.104 284.864 512.448-0.182 157.253-127.611 284.682-284.847 284.864zM508.032 400.96c-90.688 0-164.352 73.664-164.352 164.352s73.728 164.352 164.352 164.352c90.56 0 164.288-73.728 164.288-164.352s-73.728-164.352-164.288-164.352zM508.032 707.712c-78.651-0.073-142.391-63.813-142.464-142.457 0.145-78.629 63.842-142.326 142.45-142.471 78.638 0.109 142.341 63.835 142.414 142.457-0.109 78.621-63.791 142.325-142.386 142.471zM668.416 102.272v-22.336c97.152-18.688 157.312-52.736 157.312-84.416 0-46.656-130.56-98.56-317.76-98.56-187.264 0-317.76 51.968-317.76 98.56 0 31.68 60.16 65.728 157.248 84.288v22.464c-100.928-18.304-179.136-54.4-179.136-106.752 0-78.272 175.040-120.512 339.712-120.512 164.608 0 339.648 42.24 339.648 120.512-0.064 52.352-78.336 88.448-179.264 106.752z"  horiz-adv-x="1024" />

    
    <glyph glyph-name="minus" unicode="&#58961;" d="M0 448h1024v-113.728h-1024z"  horiz-adv-x="1024" />

    
    <glyph glyph-name="plane-circle-outline" unicode="&#58962;" d="M149.248 743.104c-90.531-91.776-146.442-217.903-146.442-357.088 0-280.885 227.702-508.586 508.586-508.586 141.699 0 269.864 57.949 362.088 151.441 90.617 91.832 146.548 217.973 146.548 357.178 0 141.718-57.969 269.897-151.489 362.117-91.813 90.611-217.934 146.539-357.116 146.539-141.728 0-269.911-57.992-362.115-151.541zM845.76 56.512c-181.76-184.384-479.616-186.432-664-4.736-184.32 181.824-186.432 479.552-4.672 664 181.76 184.32 479.552 186.496 663.936 4.672 184.32-181.824 186.496-479.68 4.736-663.936zM565.952 497.088l-304.832 80.896-27.52-27.904 249.984-136.576-164.864-167.232-55.744 55.104-27.456-27.84 167.168-164.928 27.456 27.84-55.68 54.912 164.8 167.232 140.032-248 27.52 27.968-85.12 303.616 137.344 139.328c6.2 6.9 9.992 16.073 9.992 26.132 0 21.632-17.536 39.168-39.168 39.168-10.266 0-19.61-3.95-26.594-10.412l-137.318-139.304z"  horiz-adv-x="1024" />

    
    <glyph glyph-name="comments-outline" unicode="&#58963;" d="M150.103-127.936c-0-0-0-0-0-0-11.747 0-21.274 9.505-21.311 21.243l-0 137.979h-61.052c-35.153 0.036-63.64 28.523-63.676 63.673l-0 371.244c0 35.134 28.606 63.676 63.676 63.676h552.157c35.198 0 63.74-28.542 63.74-63.676v-371.241c-0.036-35.175-28.56-63.676-63.74-63.676-0 0-0 0-0 0l-260.848-0-195.828-154.742c-3.547-2.793-8.080-4.48-13.006-4.48-0.040 0-0.080 0-0.119 0zM67.74 487.386c-11.697-0.036-21.174-9.491-21.247-21.176l-0-371.247c0-11.711 9.535-21.183 21.247-21.183h82.363c11.647 0 21.247-9.471 21.247-21.247v-115.449l167.158 132.024c3.552 2.87 8.123 4.608 13.1 4.608 0.029 0 0.058-0 0.087-0l268.267 0c0.019-0 0.041-0 0.064-0 11.699 0 21.183 9.484 21.183 21.183 0 0-0 0-0 0l0 371.305c-0.036 11.707-9.535 21.183-21.247 21.183-0 0-0-0-0-0l-552.221 0zM873.961 180.013c-0.053-0-0.115-0.001-0.177-0.001-4.927 0-9.459 1.687-13.052 4.515l-201.478 159.252c-4.928 3.931-8.058 9.935-8.058 16.671 0 11.749 9.524 21.273 21.273 21.273 5.013 0 9.622-1.734 13.258-4.636l166.987-131.991v115.385c0 11.775 9.471 21.311 21.247 21.311h82.235c0.019-0 0.041-0 0.064-0 11.699 0 21.183 9.484 21.183 21.183 0 0-0 0-0 0l0 371.177c0 11.734-9.512 21.247-21.247 21.247h-552.157c-0 0-0 0-0 0-11.734 0-21.247-9.512-21.247-21.247 0-0 0-0 0-0v-254.832c0-0 0-0 0-0 0-11.699-9.484-21.183-21.183-21.183-0.023 0-0.045 0-0.067 0-0.035-0-0.080-0-0.125-0-11.664 0-21.119 9.455-21.119 21.119 0 0.023 0 0.045 0 0.068l-0 254.829c0 35.134 28.542 63.74 63.676 63.74h552.157c35.134 0 63.676-28.606 63.676-63.74v-371.177c-0.036-35.153-28.523-63.64-63.673-63.676l-60.992-0v-138.039c-0.036-11.697-9.491-21.174-21.176-21.247z"  horiz-adv-x="1024" />

    
    <glyph glyph-name="file-outline" unicode="&#58964;" d="M868.416-127.232h-712.96c-57.115 0.146-103.36 46.48-103.36 103.616 0 0 0 0 0 0l-0 815.488c0 56.96 46.4 103.296 103.36 103.296h497.984c51.136 0 120-27.712 156.608-63.104l95.872-92.288c32-30.72 65.92-81.792 65.92-115.584v-647.808c0-0 0-0 0-0 0-57.158-46.281-103.507-103.414-103.616M155.456 853.824c-34.213-0.036-61.943-27.744-62.016-61.945l-0-815.495c0-34.304 27.84-62.080 62.016-62.080h712.96c0.019-0 0.042-0 0.064-0 34.299 0 62.108 27.786 62.144 62.077l0 647.747c0 14.4-20.288 54.016-53.44 85.824l-95.808 92.224c-28.992 27.968-87.488 51.584-127.936 51.584h-497.984zM951.168 591.36h-154.176c-57.069 0.036-103.324 46.291-103.36 103.357l-0 154.883h41.344v-154.88c0.036-34.258 27.817-62.016 62.080-62.016 0 0 0 0 0 0l154.176-0v-41.344zM215.872 644.032h296.128v-41.408h-296.128zM215.872 482.304h597.632v-41.408h-597.632zM215.872 320.448h597.632v-41.344h-597.632zM215.872 158.656h597.632v-41.344h-597.632z"  horiz-adv-x="1024" />

    
    <glyph glyph-name="circle-outline" unicode="&#58965;" d="M512-125.376c-280.896 0-509.376 228.48-509.376 509.376s228.48 509.376 509.376 509.376 509.376-228.48 509.376-509.376-228.48-509.376-509.376-509.376zM512 845.376c-254.4 0-461.376-206.976-461.376-461.376s206.976-461.376 461.376-461.376c254.4 0 461.376 206.976 461.376 461.376 0 254.4-206.976 461.376-461.376 461.376z"  horiz-adv-x="1024" />

    
    <glyph glyph-name="rhombus-outline" unicode="&#58966;" d="M517.184-126.208l-513.984 506.432 506.432 513.92 513.92-506.432-506.368-513.92zM71.104 380.736l445.568-439.040 438.976 445.504-445.568 439.040-438.976-445.504z"  horiz-adv-x="1024" />

    
    <glyph glyph-name="star-outline" unicode="&#58967;" d="M198.144-96.64l41.408 344.576-236.032 254.464 340.544 67.2 169.024 303.168 169.152-303.168 340.48-67.2-236.096-254.464 41.408-344.576-314.944 145.792-314.944-145.792zM513.088 102.080l257.088-118.912-33.792 281.152 192.64 207.616-277.888 54.784-138.048 247.424-137.92-247.424-277.952-54.784 192.64-207.616-33.792-281.216 257.024 118.976z"  horiz-adv-x="1024" />

    
    <glyph glyph-name="star" unicode="&#58968;" d="M681.6 563.584l-168.512 302.208-168.576-302.208-339.52-66.944 235.328-253.696-41.216-343.552 313.984 145.344 314.048-145.344-41.28 343.552 235.392 253.696z"  horiz-adv-x="1024" />

    
    <glyph glyph-name="camera-outline" unicode="&#58969;" d="M273.152-28.416c-0.019-0-0.041-0-0.064-0-12.513 0-22.656 10.143-22.656 22.656 0 0 0 0 0 0l-0 673.152c-0 12.566 10.186 22.752 22.752 22.752s22.752-10.186 22.752-22.752v-673.152c0-0 0-0 0-0 0-12.513-10.143-22.656-22.656-22.656-0.045 0-0.090 0-0.135 0zM619.52 82.112c-137.318 0.182-248.586 111.451-248.768 248.751 0.182 137.309 111.466 248.548 248.758 248.657 137.286-0.109 248.541-111.364 248.65-248.63-0.218-137.269-111.392-248.488-248.613-248.778zM619.52 533.952c-112.134-0.145-203.010-90.954-203.264-203.048 0.182-112.185 91.093-203.051 203.254-203.16 112.141 0.146 203.001 91.006 203.146 203.122-0.182 112.117-91.028 202.94-203.122 203.086zM934.144-31.232h-844.16c-47.36 0-85.888 38.656-85.888 85.888v552.256c0 47.36 38.592 85.888 85.888 85.888h285.824l83.072 105.856c4.185 5.319 10.623 8.704 17.85 8.704 0.024 0 0.049-0 0.073-0l285.308 0c6.976 0 13.568-3.2 17.856-8.704l83.136-105.856h70.976c47.296 0 85.888-38.592 85.888-85.888v-552.256c-0.036-47.398-38.432-85.815-85.817-85.888zM89.984 647.296c-22.266-0.036-40.311-18.059-40.384-40.313l-0-552.199c0-22.272 18.176-40.384 40.384-40.384h844.16c0.019-0 0.042-0 0.064-0 22.268 0 40.32 18.052 40.32 40.32 0 0.023-0 0.045-0 0.068l0 552.189c0 0 0 0 0 0 0 22.268-18.052 40.32-40.32 40.32-0.023 0-0.045-0-0.067-0l-81.981 0c-0.011-0-0.024-0-0.037-0-7.218 0-13.646 3.385-17.782 8.655l-83.173 105.905h-263.296l-83.072-105.856c-4.197-5.32-10.644-8.704-17.882-8.704-0.014 0-0.027 0-0.041 0l-296.894-0z"  horiz-adv-x="1024" />

    
    <glyph glyph-name="like-outline" unicode="&#58970;" d="M769.984 832.576h-42.304c-23.296 0-51.584-16.768-62.656-37.184l-213.44-391.36c-11.136-20.416-39.36-37.248-62.592-37.248h-42.304c-0.036 23.362-18.947 42.295-42.297 42.368l-254.023 0c-23.385-0.036-42.332-18.983-42.368-42.365l-0-380.995c0-23.232 19.008-42.304 42.368-42.304h254.016c23.32 0.108 42.196 18.984 42.304 42.294l0 42.314h84.672c23.232 0 53.376-15.424 66.88-34.432l11.264-15.68c13.504-19.008 43.648-34.496 66.944-34.496h362.88c46.592 0 84.672 38.144 84.672 84.608v338.688c0 46.656-38.144 84.736-84.672 84.736h-126.912c-0.245-0.006-0.534-0.009-0.824-0.009-20.572 0-37.248 16.676-37.248 37.248 0 1.696 0.113 3.365 0.333 5l33.003 296.641c0.209 1.483 0.329 3.195 0.329 4.936 0 20.572-16.676 37.248-37.248 37.248-0.273 0-0.545-0.003-0.817-0.009zM304.32 28.096v-42.304h-253.952v380.992h254.016l-0.064-338.688zM812.224 409.152h126.976c23.296 0 42.368-19.008 42.368-42.368v-338.688c-0.073-23.357-19.006-42.268-42.365-42.304l-362.883-0c-9.472 0-26.88 8.96-32.512 16.768l-11.264 15.744c-21.568 30.208-64.128 52.16-101.312 52.16h-84.544v254.016h42.368c38.528 0 81.344 25.472 99.84 59.328l213.312 391.232c3.84 6.784 17.664 15.104 25.472 15.104h37.376l-32.512-291.904c-0.337-2.769-0.529-5.975-0.529-9.225 0-20.535 7.675-39.277 20.314-53.514 14.904-16.621 36.856-26.349 59.896-26.349zM177.344 70.464c0-23.364 18.94-42.304 42.304-42.304s42.304 18.94 42.304 42.304c0 23.364-18.94 42.304-42.304 42.304-23.364 0-42.304-18.94-42.304-42.304z"  horiz-adv-x="1024" />

    
    <glyph glyph-name="checkmark-bold" unicode="&#58971;" d="M319.424-17.472l-319.36 319.296 96 96.832 223.36-221.824 607.744 608.704 96.768-98.368z"  horiz-adv-x="1024" />

    
    <glyph glyph-name="added-circle-outline" unicode="&#58972;" d="M512-128c-280.64 0-508.928 228.224-508.928 508.928 0 280.576 228.224 508.928 508.928 508.928s508.928-228.288 508.928-508.928c-0.064-280.704-228.288-508.928-508.928-508.928zM512 845.76c-256.32 0-464.832-208.512-464.832-464.832s208.448-464.96 464.832-464.96c256.256 0 464.896 208.64 464.896 464.96s-208.64 464.832-464.896 464.832zM795.776 356.672h-560.128c-7.040 0-12.8 12.16-12.8 27.328s5.76 27.328 12.8 27.328h560.128c7.040 0 12.8-12.16 12.8-27.328s-5.76-27.328-12.8-27.328zM542.912 664.064v-560.192c0-6.976-12.096-12.736-27.264-12.736s-27.328 5.76-27.328 12.736v560.192c0 7.104 12.16 12.8 27.328 12.8s27.264-5.696 27.264-12.8z"  horiz-adv-x="1024" />

    
    <glyph glyph-name="lightbulb-outline" unicode="&#58973;" d="M667.392 106.624c0 65.664 43.072 116.096 88.576 169.664 52.672 61.76 107.072 125.696 107.072 221.44 0 386.56-312.896 391.104-352 391.104-39.104 0-352-4.544-352-391.104 0-95.808 54.336-159.744 107.008-221.44 45.504-53.568 88.512-104 88.512-169.664v-78.272h312.832v78.272zM628.288 67.584h-234.624v39.040c0 80-49.728 138.368-97.792 194.944-50.368 59.136-97.728 114.752-97.728 196.224 0 326.656 239.488 352 312.832 352 73.408 0 312.896-25.344 312.896-352 0-81.408-47.36-137.088-97.664-196.032-48.192-56.768-97.856-115.136-97.856-195.136v-39.040zM393.664-10.624h234.688v-39.040h-234.688zM432.768-88.896h156.416v-39.104h-156.416z"  horiz-adv-x="1024" />

    
    <glyph glyph-name="cdfg-outline" unicode="&#58974;" d="M515.2-127.168c-5.12 0-10.24 0.96-15.36 1.984-31.286 7.273-54.255 34.877-54.336 67.858l0 370.286h-370.304c-38.358 0.224-69.366 31.37-69.366 69.759 0 26.911 15.238 50.263 37.556 61.898l880.386 440.183c8.735 4.764 19.133 7.565 30.185 7.565 0.458 0 0.915-0.005 1.371-0.014 19.324 0.001 37.052-7.615 49.788-21.375 21.056-19.968 26.368-52.608 12.032-80.128l-439.808-879.616c-11.712-23.68-35.584-38.4-62.144-38.4zM955.264 840.96c-0.193 0.008-0.42 0.013-0.648 0.013-2.486 0-4.839-0.572-6.934-1.591l-880.93-440.535c-5.844-3.152-9.748-9.23-9.748-16.22 0-1.558 0.194-3.071 0.559-4.515 2.021-8.257 8.933-13.825 17.573-13.825h421.76v-421.632c0-8.64 5.44-15.616 13.952-17.6 0.768-0.192 2.432-0.704 4.288-0.704 7.040 0 13.184 3.776 16.192 9.92l440 879.936c1.413 2.433 2.247 5.354 2.247 8.47 0 4.81-1.988 9.157-5.187 12.262-3.032 3.692-7.591 6.026-12.695 6.026-0.151 0-0.301-0.002-0.451-0.006z"  horiz-adv-x="1025" />

    
    <glyph glyph-name="hit-bottom-outline" unicode="&#58975;" d="M732.032 273.024l-23.616 23.616-189.184-189.12v786.944h-33.408v-786.944l-189.12 189.12-23.744-23.616 229.568-229.504zM9.856-92.992h1004.224v-33.472h-1004.224z"  horiz-adv-x="1024" />

    
    <glyph glyph-name="duty-free-circle-outline" unicode="&#58976;" d="M248.96 484.288l-56.832 40.128 83.712 160.512 56.832-40.128-83.712-160.512zM219.008 521.536h463.488l32.768 77.376h-415.488v60.16h514.24l-56.832-137.6h68.736v-220.672h-292.992l-260.096-217.728-80.704 11.52 245.184 206.272h-221.312l3.008 220.672zM482.112 358.144v100.416h-191.296v-100.352h191.296zM831.872 83.136h-281.088v177.728h74.816v-117.632h206.272v-60.096zM553.856 458.56v-100.352h197.248v100.352h-197.248zM512.832-122.944c-280.896 0-509.44 228.544-509.44 509.44 0 280.896 228.544 509.504 509.44 509.504s509.44-228.608 509.44-509.44c0.064-280.96-228.544-509.504-509.44-509.504M512.832 854.144c-257.856 0-467.648-209.792-467.648-467.648s209.728-467.584 467.648-467.584 467.584 209.728 467.584 467.584-209.664 467.648-467.584 467.648z"  horiz-adv-x="1024" />

    
    <glyph glyph-name="pn-newbie-guide-outline" unicode="&#58977;" d="M82.048 14.4h328.576c45.312 0 82.112-36.8 82.112-82.048h41.088c0 45.248 36.672 82.048 82.112 82.048h328.512c45.312 0 82.112 36.8 82.112 82.176v657.024c0 45.312-36.8 82.112-82.112 82.112h-369.536c-24.704 0-46.592-11.136-61.632-28.288-15.055 17.338-37.118 28.249-61.731 28.288l-369.501-0c-45.312 0-82.112-36.736-82.112-82.112v-657.024c0-45.376 36.8-82.176 82.112-82.176zM574.912 794.688h369.536c22.656 0 41.024-18.496 41.024-41.088v-657.024c0-0.019 0-0.042 0-0.064 0-22.67-18.359-41.052-41.021-41.088l-328.515-0c-31.616 0-60.352-12.032-82.112-31.552v744.576l10.368 11.904c7.487 8.753 18.524 14.282 30.854 14.337zM41.024 753.6c0 22.592 18.432 41.088 41.024 41.088h369.6c15.872 0 26.048-9.024 30.72-14.336l10.368-11.904v-744.576c-21.618 19.573-50.429 31.552-82.039 31.552-0.026 0-0.051-0-0.077-0l-328.572 0c-22.673 0.073-41.024 18.469-41.024 41.152 0 0 0 0 0 0l-0 657.024z"  horiz-adv-x="1025" />

    
    <glyph glyph-name="pn-after-sales-service-outline" unicode="&#58978;" d="M491.712 672.128h40.576v-576.256h-40.576zM281.216 404.288h461.632v-40.576h-461.632zM511.68-122.688l-4.672 1.088c-106.176 25.408-268.032 114.816-374.784 283.136-85.056 134.016-108.16 297.216-112.576 410.56-4.8 122.24 10.112 211.968 10.816 215.744l5.888 35.008 27.2-22.848c41.856-35.264 92.672-53.12 151.040-53.12 94.464 0 202.752 49.664 282.816 129.536l14.208 14.272 14.4-14.144c82.496-81.216 188.608-129.664 283.84-129.664 58.048 0 108.8 17.856 150.72 53.056l27.2 22.912 5.952-35.072c0.64-3.776 15.424-93.504 10.56-215.744-4.416-113.344-27.776-276.672-112.832-410.56-106.496-168.064-268.608-257.536-375.040-283.136l-4.736-1.024zM66.24 747.2c-10.112-93.76-25.728-365.632 100.352-564.352 98.56-155.456 246.336-238.72 345.152-263.936 99.072 25.344 247.040 108.992 345.536 264.192 125.952 198.528 110.656 470.656 100.608 564.48-43.2-27.52-92.8-41.344-148.032-41.408-100.16 0-210.24 46.848-298.048 127.168-86.592-80.192-196.416-128.256-297.216-128.256h-0.064c-0.602-0.005-1.314-0.007-2.027-0.007-54.222 0-104.779 15.692-147.378 42.783z"  horiz-adv-x="1024" />

    
    <glyph glyph-name="plane-bold-circle-outline" unicode="&#58979;" d="M512.832-122.944c-280.896 0-509.44 228.544-509.44 509.44 0 280.896 228.544 509.504 509.44 509.504s509.376-228.608 509.376-509.44c0.192-280.96-228.48-509.504-509.376-509.504M512.832 854.144c-257.856 0-467.648-209.792-467.648-467.648s209.728-467.648 467.648-467.648 467.52 209.728 467.52 467.648c0 257.856-209.6 467.648-467.52 467.648M320.512 304.64l-81.664 20.736-52.096-46.848 112.96-55.488-34.688-31.296 15.68-17.344 34.688 31.296 43.584-118.144 52.096 46.912-12.288 83.392 121.536 109.568 153.344-239.616 52.032 46.912-83.776 302.272 138.88 125.312c11.851 10.735 19.263 26.182 19.263 43.36 0 32.271-26.161 58.431-58.431 58.431-15.093 0-28.849-5.722-39.218-15.116l-138.83-125.14-292.032 114.368-52.096-46.976 222.592-177.024-121.536-109.568zM732.16 581.44l-15.68 17.28 17.344 15.68 15.616-17.28zM662.72 518.72l-15.68 17.28 52.032 47.104 15.616-17.28z"  horiz-adv-x="1024" />

    
    <glyph glyph-name="pn-logistics-distribution-outline" unicode="&#58980;" d="M1009.28 289.472l-405.76-147.776c-28.307 40.913-74.977 67.378-127.83 67.392-5.034-0-9.77-1.024-14.634-1.472l-240.896 661.632-218.688-79.68 13.248-36.416 182.272 66.304 225.792-620.16c-60.091-22.075-102.199-78.774-102.272-145.318 0-85.659 69.471-155.13 155.168-155.13 85.697 0 155.168 69.471 155.168 155.168 0 0 0 0 0 0 0 18.624-3.84 36.224-9.792 52.864l401.472 146.112-13.248 36.48zM475.712-62.4c-64.258 0.036-116.343 52.099-116.416 116.345 0.073 64.26 52.158 116.323 116.413 116.359 64.234-0.073 116.283-52.122 116.355-116.345-0.073-64.237-52.122-116.286-116.345-116.359zM873.344 322.496l-106.112 291.648-109.376-39.872-66.432 182.336-218.688-79.552 66.304-182.336 106.112-291.584 328.192 119.36zM422.464 653.824l145.856 53.056 53.056-145.792-145.856-53.056-53.056 145.792zM744 564.416l79.616-218.688-255.232-92.864-79.552 218.688 255.168 92.864zM436.928 53.952c0-0 0-0 0-0 0-21.42 17.364-38.784 38.784-38.784 21.42 0 38.784 17.364 38.784 38.784 0 0 0 0 0 0 0 0 0 0 0 0 0 21.42-17.364 38.784-38.784 38.784-21.42 0-38.784-17.364-38.784-38.784 0-0 0-0 0-0z"  horiz-adv-x="1024" />

    
    <glyph glyph-name="pn-faq-outline" unicode="&#58981;" d="M408.32 568.064c-155.136 0-320 43.52-320 124.096 0 80.64 164.928 124.096 320 124.096 155.136 0 320.128-43.52 320.128-124.096 0.064-80.576-164.928-124.096-320.128-124.096zM408.32 778.112c-174.656 0-281.856-50.048-281.856-85.952 0-35.84 107.2-85.888 281.856-85.888 174.72 0 281.984 50.048 281.984 85.888 0 35.904-107.264 85.952-281.984 85.952zM408.32 568.064c-155.136 0-320 43.52-320 124.096 0 0 0 0 0 0 0 10.533 8.539 19.072 19.072 19.072 10.533 0 19.072-8.539 19.072-19.072 0-0 0-0 0-0 0-35.84 107.2-85.888 281.856-85.888 174.72 0 281.984 50.048 281.984 85.888 0 10.56 8.448 19.072 19.072 19.072 10.532-0.036 19.064-8.546 19.136-19.065 0-80.583-164.992-124.103-320.192-124.103zM408.32 449.472c-155.136 0-320 43.456-320 124.096 0 0 0 0 0 0 0 10.533 8.539 19.072 19.072 19.072 10.533 0 19.072-8.539 19.072-19.072 0-0 0-0 0-0 0-35.904 107.2-85.952 281.856-85.952 17.472 0 34.688 0.576 51.392 1.6 10.432 1.024 19.52-7.424 20.224-17.984 0.021-0.335 0.033-0.727 0.033-1.121 0-10.14-7.912-18.431-17.9-19.037-17.525-1.027-35.381-1.603-53.749-1.603zM107.392 554.56c-0.019-0-0.042-0-0.064-0-10.498 0-19.008 8.51-19.008 19.008 0 0.023 0 0.045 0 0.068l-0 117.117c0 0 0 0 0 0 0 10.533 8.539 19.072 19.072 19.072 10.533 0 19.072-8.539 19.072-19.072 0-0 0-0 0-0v-117.184c0-0 0-0 0-0 0-10.498-8.51-19.008-19.008-19.008-0.023 0-0.045 0-0.067 0zM709.376 566.72c-0.019-0-0.041-0-0.064-0-10.498 0-19.008 8.51-19.008 19.008 0 0 0 0 0 0l-0 105.024c0.602 10.082 8.925 18.030 19.104 18.030s18.502-7.948 19.101-17.977l0.003-105.077c-0.073-10.513-8.612-19.008-19.136-19.008-0 0-0 0-0 0zM386.368 221.824h-0.512c-141.568 3.648-254.272 38.912-287.168 90.304-1.915 2.936-3.054 6.53-3.054 10.389 0 6.719 3.451 12.631 8.677 16.062 2.975 1.901 6.515 3.003 10.313 3.003 6.732 0 12.655-3.465 16.083-8.709 21.549-33.545 116.397-69.385 256.045-73.033 10.376-0.248 18.692-8.718 18.692-19.131 0-0.137-0.001-0.273-0.004-0.409-0.354-10.251-8.752-18.447-19.070-18.476zM422.848 102.976c-164.48 0-334.592 46.464-334.592 124.032 0 10.533 8.539 19.072 19.072 19.072 10.533 0 19.072-8.539 19.072-19.072 0-34.176 118.144-85.824 296.384-85.824 0.010 0 0.021 0 0.032 0 10.551 0 19.104-8.553 19.104-19.104 0-10.54-8.535-19.086-19.070-19.104zM320.192 406.912c-155.072 0-320.064 43.456-320.064 124.032 0 25.856 17.344 62.784 99.52 91.84 1.998 0.776 4.31 1.226 6.727 1.226 10.533 0 19.072-8.539 19.072-19.072 0-8.408-5.44-15.545-12.993-18.083-45.767-16.167-74.119-37.479-74.119-55.847 0-35.84 107.2-85.888 281.856-85.888 34.624 0 68.416 2.048 100.416 6.144 0.733 0.1 1.58 0.157 2.441 0.157 9.696 0 17.697-7.26 18.862-16.641 0.115-0.845 0.176-1.714 0.176-2.597 0-9.664-7.236-17.638-16.586-18.799-33.756-4.233-69.084-6.473-105.308-6.473zM320.192 288.448c-155.072 0-320.064 43.52-320.064 124.032 0 10.56 8.576 19.008 19.136 19.008 10.56 0 19.072-8.448 19.072-19.008 0-35.904 107.2-85.888 281.856-85.888 23.040 0 45.952 0.896 68.096 2.688 0.47 0.041 1.016 0.065 1.568 0.065 10.533 0 19.073-8.539 19.073-19.073 0-9.982-7.668-18.172-17.434-19.003-23.302-1.861-47.238-2.821-71.302-2.821zM19.264 393.408c-0.019-0-0.041-0-0.064-0-10.533 0-19.072 8.539-19.072 19.072 0 0 0 0 0 0l-0 117.12c0.602 10.082 8.925 18.030 19.104 18.030 10.179 0 18.502-7.948 19.101-17.977l0.003-117.173c0-0.019 0-0.042 0-0.064 0-10.498-8.51-19.008-19.008-19.008-0.023 0-0.045 0-0.068 0zM107.392 197.248c-0-0-0-0-0-0-10.533 0-19.072 8.539-19.072 19.072 0 0.023 0 0.045 0 0.067l-0 102.653c-0 0-0 0-0 0 0 10.559 8.523 19.127 19.065 19.2 10.556-0.073 19.079-8.641 19.079-19.2 0-0-0-0-0-0l0-102.656c0-0.019 0-0.041 0-0.064 0-10.533-8.539-19.072-19.072-19.072-0 0-0 0-0 0zM691.968-42.944c-176.684 0.182-319.873 143.327-320.128 319.976 0.182 176.753 143.4 319.97 320.111 320.152 176.733-0.182 319.936-143.407 320.081-320.114 0-176.462-143.616-320.014-320.064-320.014zM691.968 559.040c-155.662-0.182-281.802-126.322-281.984-281.967 0.255-155.612 126.375-281.664 281.97-281.809 155.568 0.218 281.615 126.243 281.87 281.768-0.146 155.656-126.234 281.79-281.835 282.008zM675.2 137.92c-18.264 1.508-34.997 6.83-49.807 15.165-13.86 6.599-30.658 21.863-42.346 40.638l25.977-4.027c1.395 2.007 3.407 3.501 5.758 4.216-0.317 0.154 1.384 0.656 3.203 0.656 0.135 0 0.269-0.003 0.402-0.008 2.413 0.001 5.165-1.279 8.301-3.647 3.136-2.56 6.976-5.312 11.52-8.512 4.544-3.264 9.984-6.336 16.384-9.344 6.336-3.008 13.888-4.992 22.784-5.952l7.168 103.616c-36.453 11.123-68.221 26.616-96.915 46.268 55.076-31.102 42.521-21.883 32.838-10.198 3.387-5.031-4.124 6.172-7.673 19.020 0.3-2.582-2.067 7.64-2.067 18.416 0 0.663 0.009 1.324 0.027 1.983-0.002 9.439 1.918 18.783 5.566 27.871 5.957 13.896 15.533 25.283 27.555 33.287-4.195-2.119 4.573 3.705 15.005 8.185 10.368 4.416 22.4 6.784 35.904 6.784l1.92 28.416c0.414 2.904 1.739 5.442 3.673 7.371 0.905 1.1 3.212 2.241 5.784 2.241 0.163 0 0.325-0.005 0.485-0.014l12.778 0.001-2.688-38.72c13.632-1.664 25.344-5.12 35.328-10.56 19.009-10.329 34.513-24.94 45.602-42.604l-27.362 10.412c-2.688-3.84-5.696-5.76-9.024-5.76-2.802 0.262-5.313 1.332-7.346 2.971l-9.038 5.221c-16.017 8.925-34.724 15.286-54.601 17.959 35.043-8.683 27.552-6.905 19.673-6.664l-1.616-94.879c54.951-17.206 102.778-40.376 146.324-69.454-109.396 56.782-101.268 52.302-93.972 46.99 10.553-7.793 18.457-18.629 22.458-31.206-0.314 3.11 1.926-6.874 1.926-19.034 0-11.776-2.048-22.72-5.888-33.152-3.84-10.24-9.536-19.392-17.152-27.2-11.402-11.916-26.21-20.486-42.859-24.145 4.96 0.385-7.221-2.307-20.031-2.307-0.66 0-1.319 0.007-1.976 0.021l-2.142-35.074c-0.32-2.368-1.28-4.544-3.072-6.464s-4.032-2.88-6.72-2.88h-12.864l2.816 44.096zM643.712 349.44c0-6.272 1.088-11.712 3.264-16.256 3.367-7.021 8.648-12.671 15.169-16.399 1.815-2.678 11.322-7.671 21.83-10.009-8.903 2.408-3.207 0.040 2.937-2.008l5.888 88.064c-9.765-0.816-18.764-3.297-26.983-7.162-3.903-1.548-11.227-7.44-16.518-14.878 0.921 2.104-2.866-4.561-4.358-12.053-0.128 1.761-1.238-3.255-1.238-8.53 0-0.271 0.003-0.54 0.009-0.81zM752.064 219.776c0.007 0.263 0.011 0.573 0.011 0.883 0 11.329-5.219 21.438-13.383 28.056-8.475 6.645-18.674 11.349-29.811 13.351-3.612 3.82-25.31 9.582-48.094 11.545l38.605-106.507c8.512 0.768 15.936 2.56 22.592 5.44 13.626 5.475 23.916 16.758 27.923 30.699 0.939 2.348 2.158 9.096 2.158 16.129 0 0.142-0 0.284-0.001 0.426z"  horiz-adv-x="1024" />

    
    <glyph glyph-name="pn-about-us-outline" unicode="&#58982;" d="M511.878-127.617c-282.247 0-511.872 229.689-511.872 511.809 0 282.184 229.625 511.809 511.872 511.809 282.311 0 511.872-229.625 511.872-511.809 0-282.184-229.561-511.809-511.872-511.809zM511.878 860.918c-262.857 0-476.727-213.806-476.727-476.727 0-262.984 213.87-476.791 476.727-476.791s476.791 213.806 476.791 476.791c0 262.921-213.934 476.727-476.791 476.727zM511.878-127.617c-0.082-0-0.179-0-0.277-0-129.773 0-248.239 48.414-338.321 128.165l-12.41 10.886 11.162 13.076c32.785 38.972 90.829 71.375 163.353 91.404 26.024 10.269 38.526 17.094 47.839 26.598 10.078 9.887 15.563 19.327 17.477 29.596 1.339 7.208 0.957 44.522-0.064 77.817-17.987 20.22-33.678 50.518-48.668 94.274-15.5 8.164-29.277 28.001-33.423 49.752-4.401 23.409-1.914 43.055 6.378 54.855-19.135 112.389-6.825 195.947 36.868 248.25 33.997 40.822 86.109 61.552 154.869 61.552l6.123 0.064c57.215 0 70.418-11.992 82.665-28.831 2.488-3.317 4.337-5.932 7.335-8.292 31.637 0 57.789-12.757 75.968-36.676 34.252-45.479 38.398-132.481 11.481-234.281 9.568-11.736 12.183-32.722 6.634-57.853-5.23-23.218-21.559-44.011-38.143-50.454-12.183-40.057-24.685-70.418-44.33-93.253v-73.225c2.232-16.201 8.356-22.261 19.582-33.104l7.463-7.271c6.953-5.613 13.076-8.611 40.758-20.794 69.653-19.263 126.932-51.602 159.589-90.128l10.971-13.076-12.821-11.354c-89.561-79.284-208.042-127.697-337.831-127.697-0.080 0-0.161 0-0.241 0zM210.878 14.495c81.318-66.693 186.406-107.119 300.936-107.119 114.53 0 219.619 40.425 301.775 107.785-30.243 27.143-76.487 50.552-133.128 66.435-30.872 13.331-40.503 17.796-52.814 27.938l-8.101 7.973c-12.948 12.438-26.279 25.45-30.043 56.003l-0.128 89.299 4.848 5.103c19.454 20.22 31.765 53.005 44.33 96.124l7.080 24.366 14.224-10.716c7.337 7.232 12.283 16.871 13.558 27.635 2.005 8.085 1.24 17.333 0.283 21.479l-13.331 4.274 2.743 16.839c27.172 95.167 26.279 177.832-2.36 215.784-11.609 15.308-27.3 22.707-48.094 22.707l-9.568-0.319-4.465 2.679c-11.481 6.761-17.222 14.543-21.495 20.284-5.804 8.164-10.461 14.543-54.345 14.543l-5.932-0.064c-58.044 0-101.035-16.456-128.144-48.923-37.888-45.415-47.137-122.403-27.619-228.923l3.189-17.541-11.673-1.914c-0.722-3.587-1.135-7.71-1.135-11.93 0-4.882 0.553-9.635 1.6-14.2 2.597-13.671 12.037-23.622 15.099-25.089l13.267 0.702 1.021-12.183c15.5-47.073 30.744-76.924 47.902-94.338l4.911-4.72 0.255-6.889c0.574-17.796 2.36-76.988-0.319-91.786-3.189-17.286-12.119-33.168-27.109-48.221-14.862-14.798-33.040-23.792-61.552-35.082-58.873-16.201-105.755-39.929-135.67-67.995z"  horiz-adv-x="1027" />

    
    <glyph glyph-name="query-bold-circle-outline" unicode="&#58983;" d="M513.05317 893.255376a510.627688 510.627688 0 1 1 0-1021.255376 510.627688 510.627688 0 0 1 0 1021.255376z m0-981.937044c-259.909493 0-471.373185 211.463691-471.373185 471.309356C41.679985 642.537181 253.143676 854.000873 513.05317 854.000873c259.845665 0 471.309356-211.463691 471.309356-471.373185 0-259.845665-211.463691-471.309356-471.309356-471.309356zM648.816306 651.473166a178.017578 178.017578 0 0 1-55.083962 33.382285 202.080908 202.080908 0 0 1-149.677741-4.787135 170.549648 170.549648 0 0 1-61.658293-47.105404 196.336346 196.336346 0 0 1-35.424796-67.658168c-4.787135-15.76563-7.531758-34.722683-8.999813-64.849717h78.700492c1.085084 20.042137 2.808452 33.318457 5.42542 42.126784 4.723306 15.637973 11.872094 29.233435 21.191049 40.722559 8.744499 10.78701 19.722994 19.020881 33.509942 25.403727a122.550645 122.550645 0 0 0 88.721561 2.808452c11.872094-4.531821 22.212304-10.78701 30.765318-18.510253a82.338715 82.338715 0 0 0 27.127096-62.679549c0-17.616655-4.021193-33.063143-12.191236-47.29689-9.510441-16.531571-21.893162-31.914231-36.190738-45.254379-20.871907-18.957053-38.807704-36.06308-52.977622-50.935111l-3.063767-3.127595c-15.829458-15.957115-45.19055-45.573521-45.19055-118.912423v-39.318332h78.509007v39.318332c0 40.977872 11.425295 52.403166 22.531447 63.573147l4.021193 4.14885c13.212491 13.914605 29.616406 29.616406 49.275572 47.424547 20.361279 19.020881 37.594964 40.531073 51.062769 63.828461 15.063517 26.105841 22.722932 55.211619 22.722932 86.615221a160.847722 160.847722 0 0 1-53.10528 121.082591zM473.798666 146.97301000000004h78.509007v-78.572835h-78.509007z"  horiz-adv-x="1026" />

    
    <glyph glyph-name="arrow-up-bold" unicode="&#58984;" d="M1023.578 170.07799999999997l-82.695-82.656-428.766 428.804-428.843-428.804L0.578 170.07799999999997l511.54 511.5z"  horiz-adv-x="1024" />

    
    <glyph glyph-name="arrow-down-bold" unicode="&#58985;" d="M0.578 598.922l82.696 82.656 428.765-428.804 428.844 428.804 82.695-82.656-511.539-511.5z"  horiz-adv-x="1024" />

    
    <glyph glyph-name="shopping-bags-outline" unicode="&#58986;" d="M837.504-125.24800000000005H186.56a66.816 66.816 0 0 0-66.688 66.688V608c0 36.736 29.888 66.624 66.688 66.624h650.944c36.736 0 66.624-29.888 66.624-66.624v-666.56c0-36.736-29.888-66.688-66.624-66.688zM186.56 630.2080000000001a22.208 22.208 0 0 1-22.208-22.208v-666.56c0-12.224 9.984-22.208 22.208-22.208h650.944a22.208 22.208 0 0 1 22.208 22.208V608a22.208 22.208 0 0 1-22.208 22.208H186.56zM673.088 526.656a22.144 22.144 0 0 0-22.208 22.208v277.76a22.336 22.336 0 0 1-22.272 22.272H395.328a22.272 22.272 0 0 1-22.208-22.272v-277.76a22.208 22.208 0 0 0-44.48 0v277.76c0 36.8 29.888 66.688 66.688 66.688h233.344c36.8 0 66.624-29.888 66.624-66.688v-277.76a22.208 22.208 0 0 0-22.208-22.208z"  horiz-adv-x="1024" />

    
    <glyph glyph-name="authentic-circle-outline" unicode="&#58987;" d="M512.832-122.94399999999996c-280.896 0-509.44 228.544-509.44 509.44S231.936 896 512.832 896s509.376-228.608 509.376-509.44c0.192-280.96-228.48-509.504-509.376-509.504m0 977.088C254.976 854.144 45.184 644.352 45.184 386.496s209.728-467.648 467.648-467.648 467.52 209.728 467.52 467.648c0 257.856-209.6 467.648-467.52 467.648M183.488 89.21600000000001v56.384h80.256V526.2080000000001h99.328v-380.672h125.12V636.1600000000001H191.616v56.384h636.608v-56.384h-240.64v-203.712h215.616v-56.384H587.584v-230.528h254.656v-56.384H183.488z"  horiz-adv-x="1024" />

    
    <glyph glyph-name="history" unicode="&#58925;" d="M514.24 32.25599999999997c-236.544 0-442.752 144.896-513.088 360.512a23.488 23.488 0 0 0 0 14.528C71.616 622.848 277.76 767.744 514.24 767.744c236.608 0 442.816-144.896 513.216-360.512a25.536 25.536 0 0 0 0-14.528c-70.4-215.552-276.608-360.448-513.216-360.448zM47.936 400c66.304-192.384 252.736-321.024 466.304-321.024 213.696 0 400 128.64 466.368 321.024-66.368 192.384-252.736 321.024-466.368 321.024-213.568 0-399.872-128.64-466.304-321.024zM514.24 170.36800000000005A229.888 229.888 0 0 0 284.608 400a23.36 23.36 0 0 0 46.72 0 183.168 183.168 0 0 1 182.912-182.912 183.04 183.04 0 0 1 182.848 182.912 183.04 183.04 0 0 1-182.848 182.848 23.36 23.36 0 0 0 0 46.656 229.76 229.76 0 0 0 229.568-229.568 229.76 229.76 0 0 0-229.568-229.568z"  horiz-adv-x="1028" />

    


  </font>
</defs>
</svg>
